<svg width="512" height="377" viewBox="0 0 512 377" fill="none" xmlns="http://www.w3.org/2000/svg">
<path d="M113.671 104.041L18.1736 167.911L112.238 308.503L207.736 244.633L113.671 104.041Z" fill="#F5F5F5"/>
<path d="M158.387 237.983L157.306 244.689L109.83 237.847L110.911 231.142L158.387 237.983Z" fill="#E0E0E0"/>
<path d="M134.479 214.062L141.288 215.041L133.738 261.776L126.921 260.789L134.479 214.062Z" fill="#E0E0E0"/>
<path d="M90.79 154.665C90.8581 154.758 81.2914 161.285 69.4181 169.216C57.5449 177.148 47.8675 183.513 47.7994 183.411C47.7313 183.309 57.298 176.79 69.1713 168.851C81.0446 160.911 90.6794 154.563 90.79 154.665Z" fill="#E0E0E0"/>
<path d="M125.874 145.848C125.942 145.951 110.026 156.707 90.3304 169.88C70.6353 183.053 54.5829 193.648 54.5319 193.554C54.4808 193.46 70.3629 182.687 90.0836 169.514C109.804 156.341 125.805 145.746 125.874 145.848Z" fill="#E0E0E0"/>
<path d="M132.912 156.366C132.98 156.469 117.064 167.233 97.3692 180.406C77.6741 193.58 61.6217 204.174 61.5707 204.072C61.5196 203.97 77.4187 193.214 97.1224 180.032C116.826 166.85 132.844 156.264 132.912 156.366Z" fill="#E0E0E0"/>
<path d="M139.951 166.893C140.019 166.995 124.103 177.76 104.408 190.924C84.713 204.089 68.6606 214.701 68.6606 214.598C68.6606 214.496 84.5002 203.731 104.204 190.558C123.907 177.385 139.883 166.791 139.951 166.893Z" fill="#E0E0E0"/>
<path d="M146.965 177.419C147.033 177.521 131.117 188.278 111.421 201.451C91.7263 214.624 75.674 225.218 75.6314 225.116C75.5889 225.014 91.4965 214.258 111.217 201.085C130.938 187.912 146.965 177.317 146.965 177.419Z" fill="#E0E0E0"/>
<path d="M433.003 198.247L352.801 251.887L431.797 369.959L512 316.318L433.003 198.247Z" fill="#F5F5F5"/>
<path d="M470.564 310.758L469.653 316.392L429.778 310.648L430.697 305.014L470.564 310.758Z" fill="#E0E0E0"/>
<path d="M450.486 290.667L456.206 291.492L449.865 330.739L444.137 329.914L450.486 290.667Z" fill="#E0E0E0"/>
<path d="M413.76 240.826C413.828 240.928 405.802 246.416 395.827 253.08C385.851 259.743 377.715 265.07 377.646 264.993C377.578 264.917 385.613 259.411 395.58 252.739C405.546 246.068 413.692 240.681 413.76 240.826Z" fill="#E0E0E0"/>
<path d="M443.252 233.379C443.32 233.481 429.965 242.536 413.462 253.59C396.959 264.644 383.451 273.545 383.383 273.443C383.315 273.341 396.669 264.287 413.173 253.224C429.676 242.161 443.158 233.277 443.252 233.379Z" fill="#E0E0E0"/>
<path d="M449.167 242.213C449.235 242.315 435.881 251.369 419.377 262.432C402.874 273.494 389.366 282.379 389.298 282.276C389.23 282.174 402.542 273.163 419.088 262.1C435.634 251.037 449.116 242.119 449.167 242.213Z" fill="#E0E0E0"/>
<path d="M455.074 251.037C455.142 251.139 441.779 260.194 425.284 271.256C408.789 282.319 395.273 291.203 395.205 291.101C395.137 290.999 408.491 281.953 424.995 270.882C441.498 259.811 455.014 250.952 455.074 251.037Z" fill="#E0E0E0"/>
<path d="M461.032 259.896C461.1 259.998 447.745 269.044 431.242 280.107C414.739 291.169 401.231 300.053 401.163 299.96C401.095 299.866 414.449 290.803 430.953 279.741C447.456 268.678 460.921 259.794 461.032 259.896Z" fill="#E0E0E0"/>
<path d="M306.119 109.213L218.608 62.4165L149.688 191.25L237.2 238.047L306.119 109.213Z" fill="#F5F5F5"/>
<path d="M222.221 197.741L216.672 199.638L202.577 160.689L208.135 158.783L222.221 197.741Z" fill="#E0E0E0"/>
<path d="M230.733 169.795L232.758 175.386L194.066 188.635L192.04 183.045L230.733 169.795Z" fill="#E0E0E0"/>
<path d="M258.224 112.329C258.156 112.456 249.287 107.844 238.401 102.032C227.516 96.2199 218.757 91.3949 218.825 91.2672C218.894 91.1396 227.771 95.7519 238.657 101.564C249.543 107.376 258.292 112.193 258.224 112.329Z" fill="#E0E0E0"/>
<path d="M279.23 135.501C279.162 135.628 264.472 127.901 246.419 118.251C228.367 108.601 213.795 100.67 213.863 100.543C213.931 100.415 228.613 108.133 246.666 117.792C264.718 127.45 279.298 135.373 279.23 135.501Z" fill="#E0E0E0"/>
<path d="M274.072 145.142C274.004 145.269 259.314 137.551 241.261 127.892C223.209 118.234 208.637 110.311 208.706 110.184C208.774 110.056 223.456 117.783 241.508 127.433C259.561 137.083 274.14 145.014 274.072 145.142Z" fill="#E0E0E0"/>
<path d="M268.914 154.784C268.846 154.911 254.156 147.193 236.103 137.543C218.051 127.893 203.48 119.987 203.548 119.834C203.616 119.681 218.298 127.425 236.35 137.075C254.403 146.725 268.983 154.656 268.914 154.784Z" fill="#E0E0E0"/>
<path d="M263.757 164.425C263.689 164.553 248.998 156.834 230.946 147.184C212.893 137.534 198.313 129.603 198.39 129.476C198.467 129.348 213.14 137.066 231.192 146.716C249.245 156.366 263.825 164.298 263.757 164.425Z" fill="#E0E0E0"/>
<path opacity="0.2" d="M264.208 0H262.012V37.4258H264.208V0Z" fill="black"/>
<path d="M211.846 82.7061H314.374C314.374 82.7061 304.909 37.4429 262.335 37.4429C224.469 37.4429 211.846 82.7061 211.846 82.7061Z" fill="#FA6B7C"/>
<path d="M264.208 0H262.012V37.4258H264.208V0Z" fill="#FA6B7C"/>
<path d="M491.391 374.284C491.391 374.403 381.383 374.505 245.704 374.505C110.026 374.505 0 374.428 0 374.284C0 374.139 109.992 374.062 245.704 374.062C381.417 374.062 491.391 374.156 491.391 374.284Z" fill="#263238"/>
<path d="M27.2021 320.987C28.6411 321.091 30.0444 321.483 31.3283 322.141C32.6122 322.799 33.7504 323.709 34.675 324.816C36.5133 327.044 37.815 329.665 38.4795 332.475C39.9179 337.853 39.0328 344.21 37.5007 349.563C31.679 347.478 28.0787 341.266 26.436 337.998C23.8827 332.841 22.3591 321.949 27.1765 320.979" fill="#FA6B7C"/>
<path d="M45.8845 356.09C45.0102 354.734 44.5103 353.171 44.4356 351.56C44.3609 349.949 44.7139 348.347 45.4589 346.916C46.2272 345.499 47.2702 344.249 48.527 343.24C49.7837 342.23 51.2291 341.481 52.7786 341.036C54.2 340.594 55.8512 340.415 57.0853 341.24C57.6417 341.661 58.0749 342.223 58.3399 342.868C58.6049 343.513 58.6919 344.218 58.5918 344.908C58.3684 346.291 57.7809 347.589 56.8896 348.669C54.0553 352.507 50.6167 355.698 45.8249 356.09" fill="#FA6B7C"/>
<path d="M46.5313 374.071C46.405 373.709 46.3166 373.336 46.2675 372.956C46.1143 372.156 45.91 371.127 45.6632 369.893C44.8992 366.514 44.6865 363.034 45.0333 359.587C45.4346 356.124 46.754 352.831 48.8549 350.048C49.4968 349.216 50.237 348.464 51.0593 347.81C51.2828 347.633 51.5158 347.468 51.7573 347.316C51.8341 347.253 51.9202 347.201 52.0126 347.163C50.936 348.083 49.9524 349.106 49.0762 350.218C47.086 353.004 45.8329 356.247 45.4334 359.647C44.8886 363.612 45.561 367.246 45.9526 369.859C46.1568 371.161 46.327 372.216 46.4207 372.948C46.4877 373.318 46.5247 373.694 46.5313 374.071Z" fill="#263238"/>
<path d="M29.0747 329.182C29.1719 329.316 29.252 329.462 29.313 329.616C29.4662 329.957 29.6705 330.382 29.9088 330.918C30.428 332.05 31.1515 333.692 32.0281 335.726C33.7815 339.802 36.1306 345.47 38.5818 351.784C41.0331 358.098 43.1184 363.859 44.5397 368.055C45.2717 370.148 45.842 371.85 46.242 373.033C46.4207 373.594 46.5569 374.045 46.6676 374.394C46.7283 374.551 46.7711 374.713 46.7952 374.879C46.7089 374.735 46.6403 374.581 46.591 374.42C46.4633 374.079 46.3016 373.637 46.0888 373.084L44.2929 368.148C42.7694 363.987 40.6416 358.234 38.1988 351.929C35.7561 345.623 33.441 339.938 31.7558 335.837C30.9046 333.82 30.2493 332.178 29.7641 330.978C29.5428 330.433 29.3641 329.999 29.2279 329.65C29.164 329.499 29.1127 329.342 29.0747 329.182Z" fill="#263238"/>
<path d="M39.6115 362.174C37.8602 359.259 35.44 356.802 32.5511 355.007C29.6621 353.212 26.3873 352.131 22.9975 351.852C21.2952 351.732 19.2015 352.022 18.4354 353.554C17.6694 355.085 18.6908 356.957 19.8653 358.2C22.3609 360.81 25.5735 362.623 29.0981 363.411C32.6227 364.198 36.3017 363.925 39.6711 362.625" fill="#FA6B7C"/>
<path d="M25.6191 356.465C25.9799 356.447 26.3417 356.461 26.7 356.507C27.1196 356.53 27.5374 356.578 27.9511 356.652C28.4363 356.745 29.0066 356.796 29.6023 356.967C30.2683 357.107 30.9249 357.289 31.5684 357.511C32.314 357.751 33.0445 358.035 33.7559 358.362C35.3921 359.095 36.9398 360.011 38.369 361.094C39.7817 362.202 41.0612 363.47 42.182 364.872C42.666 365.483 43.1123 366.122 43.5183 366.787C43.8853 367.361 44.2206 367.955 44.5226 368.565C44.7784 369.063 45.0057 369.574 45.2036 370.097C45.3742 370.484 45.5192 370.882 45.6376 371.288C45.7637 371.628 45.8577 371.978 45.9185 372.335C45.8249 372.335 45.4163 370.872 44.2673 368.693C43.9544 368.108 43.6107 367.54 43.2374 366.991C42.8227 366.346 42.3738 365.724 41.8927 365.127C39.6665 362.377 36.8274 360.185 33.6027 358.728C32.8622 358.405 32.1557 358.098 31.4663 357.877C30.8334 357.647 30.1884 357.451 29.5342 357.29C27.1511 356.635 25.6105 356.558 25.6191 356.465Z" fill="#263238"/>
<path d="M411.972 89.7607C409.47 90.3309 408.253 93.2157 408.015 95.7686C407.776 98.3215 408.1 101.028 407.027 103.359C405.819 105.98 402.933 107.921 402.84 110.805C402.78 112.567 403.827 114.209 403.776 115.988C403.691 118.881 400.746 121.094 400.584 123.953C400.474 126.038 401.861 128.029 401.529 130.088C401.274 131.688 400.023 132.948 399.495 134.479C398.448 137.543 400.55 140.904 403.282 142.623C404.813 143.585 406.535 144.202 408.329 144.429C410.122 144.657 411.944 144.49 413.667 143.941C415.389 143.391 416.971 142.472 418.301 141.248C419.632 140.024 420.678 138.524 421.369 136.854C422.884 133.177 422.552 129.033 422.22 125.076C421.199 112.731 420.438 100.37 419.939 87.9907" fill="#263238"/>
<path d="M404.704 133.314C405.219 132.994 405.621 132.52 405.853 131.96C406.098 131.294 406.197 130.583 406.142 129.876C406.049 128.937 405.84 128.014 405.521 127.127C405.114 126.012 404.963 124.819 405.078 123.638C405.291 122.31 406.244 121.221 407.104 120.149C407.567 119.624 407.954 119.037 408.253 118.404C408.553 117.765 408.602 117.036 408.389 116.362C407.947 114.975 406.585 113.954 405.964 112.346C405.671 111.549 405.624 110.684 405.827 109.861C406.02 109.089 406.306 108.343 406.678 107.64C407.397 106.373 407.968 105.028 408.381 103.632C408.977 100.934 408.696 98.3555 409.104 96.2366C409.331 94.5395 410.084 92.9562 411.258 91.7094C411.59 91.3736 411.968 91.087 412.381 90.8585C412.523 90.7843 412.675 90.7299 412.832 90.6968C412.299 90.9904 411.809 91.357 411.377 91.786C410.289 93.0453 409.605 94.6014 409.411 96.2536C409.261 97.3823 409.182 98.5191 409.172 99.6575C409.17 100.997 409.039 102.334 408.781 103.649C408.375 105.077 407.803 106.454 407.078 107.75C406.44 109.086 405.853 110.652 406.415 112.116C406.976 113.579 408.33 114.592 408.849 116.158C409.083 116.931 409.026 117.764 408.687 118.498C408.355 119.194 407.926 119.839 407.41 120.413C406.559 121.485 405.632 122.506 405.427 123.698C405.308 124.828 405.442 125.97 405.819 127.042C406.123 127.957 406.312 128.906 406.381 129.867C406.423 130.608 406.291 131.348 405.998 132.029C405.815 132.455 405.521 132.826 405.146 133.101C405.013 133.198 404.863 133.27 404.704 133.314Z" fill="#455A64"/>
<path d="M398.048 153.49L390.388 175.616L358.351 177.317L353.006 189.231L386.456 192.635C388.036 193.284 389.731 193.605 391.44 193.58C393.148 193.556 394.833 193.185 396.394 192.49C397.955 191.796 399.359 190.793 400.521 189.541C401.683 188.289 402.579 186.814 403.155 185.206L412.083 160.29L398.048 153.49Z" fill="#B78876"/>
<path d="M464.274 362.259C464.274 362.259 440.8 287.697 440.298 285.28C439.847 283.085 448.809 229.431 449.95 215.5L418.228 216.683V216.998L404.746 217.747L416.815 370.173H431.412L429.965 319.583C438.97 343.742 451.873 368.369 451.873 368.369L464.274 362.259Z" fill="#B78876"/>
<path d="M430.561 337.734C430.561 337.275 430.382 320.783 430.382 320.783C430.204 321.77 424.79 306.47 424.918 305.542C424.986 305.057 430.561 337.734 430.561 337.734Z" fill="#A36957"/>
<path d="M424.305 298.292C424.23 298.595 424.199 298.907 424.212 299.22C424.165 300.07 424.165 300.922 424.212 301.772C424.212 302.309 424.288 302.887 424.356 303.517C424.425 304.147 424.518 304.81 424.663 305.5C424.966 307.005 425.366 308.489 425.863 309.942C426.918 313.031 428.093 315.728 428.919 317.686C429.31 318.537 429.651 319.345 429.94 319.992C430.044 320.293 430.187 320.579 430.365 320.843C430.32 320.549 430.234 320.262 430.11 319.992C429.914 319.43 429.616 318.622 429.259 317.626C428.51 315.635 427.387 312.912 426.34 309.857C425.844 308.425 425.438 306.964 425.123 305.483C424.969 304.802 424.867 304.147 424.774 303.534C424.68 302.921 424.612 302.343 424.569 301.832C424.467 300.777 424.425 299.926 424.399 299.33C424.415 298.981 424.384 298.632 424.305 298.292Z" fill="#A36957"/>
<path d="M416.543 370.948V369.578L431.497 368.922L431.54 374.581L430.621 374.641C426.51 374.879 409.726 375.577 406.985 374.752C403.912 373.832 416.543 370.948 416.543 370.948Z" fill="#455A64"/>
<path d="M431.736 374.241C431.651 374.247 431.565 374.247 431.48 374.241L430.748 374.292L428.042 374.411C425.761 374.505 422.603 374.59 419.122 374.607C415.641 374.624 412.475 374.565 410.185 374.497L407.487 374.386H406.747H406.491C406.576 374.379 406.662 374.379 406.747 374.386H407.487L410.194 374.437C412.475 374.437 415.632 374.505 419.113 374.488C422.595 374.471 425.761 374.411 428.042 374.352L430.748 374.284H431.736V374.241Z" fill="#263238"/>
<path d="M411.666 374.718C411.542 374.273 411.371 373.842 411.155 373.433C410.886 373.056 410.575 372.71 410.228 372.403C410.692 372.569 411.078 372.903 411.309 373.34C411.59 373.741 411.717 374.231 411.666 374.718Z" fill="#263238"/>
<path d="M416.075 372.48C416.075 372.48 415.828 372.25 415.607 371.909C415.386 371.569 415.249 371.271 415.292 371.245C415.335 371.22 415.539 371.467 415.76 371.807C415.981 372.148 416.118 372.454 416.075 372.48Z" fill="#263238"/>
<path d="M417.284 371.875C417.284 371.918 417.011 371.756 416.756 371.526C416.501 371.296 416.313 371.084 416.347 371.05C416.381 371.016 416.62 371.169 416.875 371.399C417.13 371.628 417.318 371.799 417.284 371.875Z" fill="#263238"/>
<path d="M418.041 370.429C417.791 370.52 417.523 370.555 417.258 370.531C416.997 370.565 416.732 370.539 416.484 370.454C416.731 370.363 416.996 370.328 417.258 370.352C417.521 370.316 417.79 370.342 418.041 370.429Z" fill="#263238"/>
<path d="M418.296 369.442C418.043 369.607 417.748 369.695 417.445 369.697C417.156 369.736 416.862 369.694 416.594 369.578C416.875 369.531 417.16 369.508 417.445 369.51C417.726 369.46 418.011 369.437 418.296 369.442Z" fill="#263238"/>
<path d="M415.573 371.178C415.255 371.237 414.929 371.237 414.611 371.178C414.267 371.136 413.928 371.062 413.598 370.957C413.394 370.9 413.197 370.82 413.011 370.718C412.898 370.652 412.813 370.546 412.773 370.42C412.757 370.349 412.762 370.275 412.788 370.207C412.814 370.139 412.859 370.08 412.917 370.037C413.153 369.923 413.411 369.863 413.673 369.86C413.935 369.858 414.194 369.914 414.432 370.024C414.67 370.134 414.88 370.295 415.048 370.496C415.216 370.697 415.337 370.933 415.403 371.186C415.42 371.271 415.42 371.357 415.403 371.442C415.306 371.134 415.156 370.846 414.96 370.591C414.734 370.336 414.438 370.152 414.109 370.063C413.732 369.941 413.323 369.972 412.968 370.148C412.824 370.259 412.883 370.437 413.045 370.54C413.219 370.633 413.401 370.71 413.59 370.769C413.91 370.875 414.237 370.957 414.568 371.016C415.207 371.152 415.573 371.152 415.573 371.178Z" fill="#263238"/>
<path d="M415.326 371.229C415.202 371.031 415.159 370.793 415.207 370.565C415.238 370.315 415.328 370.076 415.471 369.867C415.55 369.725 415.665 369.605 415.803 369.519C415.942 369.433 416.099 369.383 416.262 369.374C416.359 369.396 416.443 369.454 416.498 369.536C416.553 369.618 416.576 369.718 416.56 369.816C416.539 369.968 416.484 370.114 416.398 370.242C416.269 370.453 416.118 370.65 415.947 370.829C415.799 370.999 415.612 371.13 415.403 371.212C415.403 371.212 415.59 371.042 415.854 370.735C416.007 370.56 416.141 370.369 416.254 370.165C416.381 369.961 416.475 369.595 416.254 369.552C416.032 369.51 415.777 369.774 415.632 369.961C415.497 370.145 415.404 370.358 415.36 370.582C415.325 370.796 415.314 371.013 415.326 371.229Z" fill="#263238"/>
<path d="M431.421 370.173C431.421 370.173 430.995 370.173 430.323 370.216C429.447 370.321 428.619 370.669 427.931 371.221C427.244 371.773 426.725 372.507 426.433 373.34C426.212 373.978 426.195 374.412 426.161 374.403C426.127 374.395 426.161 374.293 426.161 374.106C426.183 373.831 426.234 373.56 426.314 373.297C426.585 372.426 427.106 371.653 427.812 371.076C428.527 370.508 429.396 370.168 430.306 370.097C430.589 370.063 430.874 370.063 431.157 370.097C431.248 370.111 431.337 370.137 431.421 370.173Z" fill="#263238"/>
<path d="M424.263 373.05C423.549 373.216 422.816 373.288 422.084 373.263C421.355 373.299 420.625 373.236 419.914 373.075C419.914 373.024 420.884 373.075 422.084 373.075C423.284 373.075 424.254 372.999 424.263 373.05Z" fill="#263238"/>
<path d="M427.174 373.024C427.174 373.024 427.097 373.228 426.995 373.45C426.893 373.671 426.842 373.875 426.791 373.867C426.74 373.858 426.714 373.637 426.833 373.373C426.952 373.109 427.14 372.982 427.174 373.024Z" fill="#263238"/>
<path d="M428.272 371.654C428.272 371.654 428.212 371.842 428.059 371.995C427.906 372.148 427.752 372.25 427.71 372.216C427.667 372.182 427.769 372.029 427.923 371.867C428.076 371.705 428.229 371.612 428.272 371.654Z" fill="#263238"/>
<path d="M429.838 371.024C429.838 371.076 429.633 371.076 429.412 371.152C429.191 371.229 429.038 371.348 428.995 371.314C428.953 371.28 429.08 371.076 429.353 370.982C429.625 370.888 429.855 370.973 429.838 371.024Z" fill="#263238"/>
<path d="M430.953 370.718C430.953 370.769 430.893 370.846 430.765 370.888C430.638 370.931 430.527 370.939 430.51 370.888C430.493 370.837 430.578 370.761 430.697 370.718C430.816 370.675 430.936 370.675 430.953 370.718Z" fill="#263238"/>
<path d="M451.576 369.629L451.014 368.378L464.385 361.664L466.743 366.77L465.892 367.204C462.24 369.102 447.218 376.607 444.375 376.982C441.234 377.433 451.576 369.629 451.576 369.629Z" fill="#455A64"/>
<path d="M466.794 366.404L466.572 366.54L465.917 366.88L463.5 368.106C461.457 369.118 458.614 370.488 455.44 371.935C452.265 373.382 449.354 374.616 447.243 375.492L444.732 376.505L444.051 376.769C443.973 376.805 443.89 376.831 443.805 376.845L444.035 376.735L444.707 376.437L447.192 375.373C449.294 374.471 452.188 373.212 455.363 371.765C458.538 370.318 461.389 368.974 463.449 367.987L465.883 366.821L466.555 366.506L466.794 366.404Z" fill="#263238"/>
<path d="M448.707 375.058C448.412 374.699 448.078 374.373 447.711 374.088C447.312 373.851 446.887 373.663 446.443 373.526C446.932 373.52 447.411 373.663 447.816 373.937C448.221 374.211 448.532 374.602 448.707 375.058Z" fill="#263238"/>
<path d="M451.78 371.212C451.78 371.212 451.456 371.11 451.116 370.888C450.775 370.667 450.529 370.454 450.554 370.412C450.58 370.369 450.878 370.514 451.218 370.735C451.558 370.956 451.805 371.169 451.78 371.212Z" fill="#263238"/>
<path d="M452.614 370.174C452.614 370.216 452.325 370.174 451.993 370.072C451.661 369.969 451.414 369.842 451.422 369.791C451.638 369.771 451.854 369.806 452.052 369.893C452.376 369.969 452.631 370.089 452.614 370.174Z" fill="#263238"/>
<path d="M452.733 368.54C452.733 368.591 452.452 368.769 452.061 368.957C451.835 369.092 451.582 369.176 451.32 369.203C451.32 369.152 451.601 368.974 451.984 368.786C452.213 368.651 452.469 368.567 452.733 368.54Z" fill="#263238"/>
<path d="M452.563 367.535C452.563 367.535 452.316 367.876 451.873 368.123C451.623 368.293 451.325 368.382 451.022 368.378C451.266 368.214 451.526 368.074 451.797 367.961C452.214 367.731 452.52 367.493 452.563 367.535Z" fill="#263238"/>
<path d="M450.818 370.242C450.559 370.42 450.271 370.552 449.967 370.633C449.633 370.731 449.291 370.802 448.946 370.846C448.736 370.872 448.525 370.872 448.316 370.846C448.184 370.836 448.062 370.775 447.975 370.676C447.936 370.615 447.915 370.544 447.915 370.471C447.915 370.399 447.936 370.328 447.975 370.267C448.234 369.954 448.594 369.74 448.993 369.662C449.392 369.585 449.805 369.648 450.163 369.842C450.374 369.952 450.559 370.106 450.707 370.293C450.81 370.429 450.852 370.514 450.844 370.522C450.634 370.288 450.383 370.095 450.103 369.952C449.803 369.811 449.469 369.761 449.141 369.808C448.946 369.828 448.757 369.886 448.585 369.98C448.413 370.073 448.26 370.2 448.137 370.352C448.043 370.514 448.137 370.65 448.367 370.676C448.562 370.693 448.759 370.693 448.954 370.676C449.293 370.642 449.629 370.582 449.958 370.497C450.444 370.361 450.818 370.216 450.818 370.242Z" fill="#263238"/>
<path d="M450.58 370.387C450.39 370.252 450.257 370.052 450.205 369.825C450.131 369.586 450.113 369.332 450.154 369.084C450.169 368.921 450.225 368.764 450.317 368.629C450.41 368.493 450.535 368.383 450.682 368.31C450.895 368.242 451.388 368.676 451.422 368.838C451.456 368.999 451.176 368.914 451.159 369.05C451.131 369.292 451.074 369.529 450.988 369.757C450.926 369.976 450.809 370.175 450.648 370.336C450.648 370.336 450.75 370.106 450.869 369.723C450.93 369.497 450.973 369.266 450.997 369.033C450.997 368.795 450.997 368.429 450.725 368.489C450.452 368.548 450.376 368.88 450.316 369.119C450.264 369.34 450.264 369.57 450.316 369.791C450.386 369.997 450.475 370.196 450.58 370.387Z" fill="#263238"/>
<path d="M464.836 362.821C464.836 362.821 464.428 362.965 463.849 363.314C463.092 363.767 462.476 364.421 462.07 365.204C461.676 365.994 461.508 366.877 461.585 367.756C461.636 368.437 461.798 368.829 461.764 368.846C461.709 368.761 461.666 368.67 461.636 368.573C461.552 368.313 461.492 368.045 461.457 367.773C461.335 366.867 461.492 365.945 461.908 365.131C462.323 364.316 462.976 363.647 463.781 363.212C464.022 363.079 464.276 362.971 464.538 362.889C464.634 362.852 464.734 362.829 464.836 362.821Z" fill="#263238"/>
<path d="M459.483 368.386C458.282 369.221 456.942 369.832 455.525 370.191C455.525 370.139 456.418 369.799 457.508 369.339C458.597 368.88 459.457 368.344 459.483 368.386Z" fill="#263238"/>
<path d="M462.13 367.169C462.172 367.169 462.13 367.382 462.13 367.629C462.13 367.876 462.13 368.08 462.13 368.097C462.13 368.114 461.959 367.91 461.959 367.629C461.959 367.348 462.087 367.144 462.13 367.169Z" fill="#263238"/>
<path d="M462.564 365.468C462.606 365.468 462.564 365.663 462.513 365.868C462.462 366.072 462.334 366.225 462.291 366.208C462.249 366.191 462.291 366.012 462.342 365.808C462.393 365.604 462.513 365.451 462.564 365.468Z" fill="#263238"/>
<path d="M463.738 364.217C463.738 364.268 463.568 364.344 463.398 364.506C463.228 364.668 463.134 364.838 463.091 364.821C463.049 364.804 463.091 364.566 463.279 364.37C463.466 364.174 463.73 364.217 463.738 364.217Z" fill="#263238"/>
<path d="M464.632 363.519C464.632 363.519 464.632 363.655 464.53 363.749C464.428 363.842 464.334 363.893 464.3 363.859C464.266 363.825 464.3 363.723 464.402 363.63C464.504 363.536 464.598 363.485 464.632 363.519Z" fill="#263238"/>
<path d="M447.89 190.312L445.405 159.932L458.172 160.162C458.172 160.162 458.759 155.677 456.878 145.857C455.721 139.832 451.712 136.139 447.209 133.943V133.858L446.818 133.756C443.111 132.092 439.153 131.06 435.106 130.701L419.403 130.88C419.403 130.88 407.41 129.348 400.797 137.934C398.244 141.228 390.32 163.77 390.32 163.77L409.172 172.841L407.41 160.341C407.41 160.341 407.768 169.403 408.925 172.254C409.564 173.854 411.479 178.824 411.479 178.824L411.232 193.818L447.89 190.312Z" fill="#FA6B7C"/>
<path d="M439.234 155.524L436.902 165.446H458.887L457.44 148.801L439.234 155.524Z" fill="#FA6B7C"/>
<path d="M458.887 165.447C457.926 165.27 456.953 165.173 455.976 165.157C454.172 165.055 451.72 164.962 448.929 164.979C446.137 164.996 443.677 165.115 441.873 165.251C440.897 165.285 439.925 165.405 438.97 165.608C439.945 165.686 440.924 165.686 441.898 165.608C443.694 165.549 446.154 165.481 448.929 165.472C451.703 165.464 454.163 165.472 455.967 165.515C456.941 165.569 457.917 165.547 458.887 165.447Z" fill="#263238"/>
<path d="M438.281 148.725C438.176 149.571 438.153 150.426 438.213 151.278C438.213 152.835 438.281 154.979 438.375 157.353C438.468 159.728 438.579 161.881 438.681 163.429C438.685 164.287 438.776 165.143 438.953 165.982C439.058 165.136 439.081 164.281 439.021 163.429C439.021 161.872 438.953 159.719 438.86 157.345C438.766 154.971 438.655 152.826 438.553 151.269C438.55 150.414 438.458 149.561 438.281 148.725Z" fill="#263238"/>
<g opacity="0.3">
<path d="M418.279 157.32C418.279 157.32 423.165 193.546 436.902 192.584C436.902 192.584 443.09 192.516 445.073 188.406V186.789L418.279 157.32Z" fill="black"/>
</g>
<g opacity="0.3">
<path d="M438.281 150.861L435.651 168.621L437.353 171.735L440.162 165.642L438.97 165.608L438.281 150.861Z" fill="black"/>
</g>
<path d="M411.402 178.841C411.239 178.576 411.113 178.289 411.028 177.99C410.815 177.437 410.534 176.628 410.177 175.616C409.324 172.977 408.622 170.292 408.074 167.574C407.528 164.854 407.181 162.098 407.036 159.328C406.985 158.264 406.968 157.405 406.985 156.775C406.963 156.467 406.983 156.158 407.044 155.856C407.113 155.856 407.164 157.166 407.342 159.26C407.582 162.005 407.971 164.735 408.508 167.438C409.138 170.603 409.896 173.437 410.475 175.471C410.747 176.415 410.977 177.224 411.164 177.888C411.281 178.195 411.361 178.515 411.402 178.841Z" fill="#263238"/>
<path d="M416.952 189.249C416.833 189.249 416.492 188.508 416.194 187.546C415.938 186.957 415.824 186.315 415.862 185.674C416.238 186.194 416.496 186.789 416.62 187.419C416.864 187.997 416.977 188.622 416.952 189.249Z" fill="#263238"/>
<path d="M418.85 189.113C418.206 187.405 418.179 185.527 418.773 183.802C418.839 184.686 418.839 185.573 418.773 186.457C418.866 187.339 418.891 188.227 418.85 189.113Z" fill="#263238"/>
<path d="M409.555 173.258C409.496 173.36 405.112 171.284 399.759 168.612C394.405 165.94 390.107 163.676 390.158 163.566C390.209 163.455 394.601 165.54 399.955 168.212C405.308 170.884 409.606 173.148 409.555 173.258Z" fill="#263238"/>
<path d="M417.284 133.815C417.377 129.51 417.403 124.982 417.403 124.982C417.403 124.982 411.879 123.919 410.917 116.651C409.998 109.724 412.568 93.4623 412.568 93.4623C420.637 90.4158 429.021 93.1815 434.544 99.7169L433.174 134.666C433.012 138.726 429.395 141.823 425.054 141.619C420.663 141.406 417.19 137.917 417.284 133.815Z" fill="#B78876"/>
<path d="M412.143 106.457C412.135 106.695 412.219 106.928 412.377 107.107C412.536 107.285 412.756 107.397 412.994 107.419C413.115 107.43 413.237 107.417 413.352 107.38C413.468 107.343 413.575 107.283 413.666 107.203C413.758 107.124 413.832 107.026 413.885 106.917C413.938 106.808 413.967 106.689 413.973 106.567C413.98 106.33 413.896 106.098 413.737 105.921C413.579 105.743 413.359 105.634 413.121 105.614C413 105.596 412.876 105.604 412.759 105.638C412.641 105.672 412.531 105.731 412.439 105.811C412.346 105.891 412.271 105.99 412.22 106.101C412.169 106.213 412.143 106.334 412.143 106.457Z" fill="#263238"/>
<path d="M411.802 105.241C411.913 105.36 412.653 104.857 413.632 104.892C414.611 104.926 415.334 105.436 415.454 105.317C415.573 105.198 415.403 105.045 415.088 104.798C414.661 104.489 414.15 104.32 413.624 104.313C413.105 104.293 412.594 104.442 412.168 104.738C411.853 104.968 411.743 105.181 411.802 105.241Z" fill="#263238"/>
<path d="M422.28 107.087C422.27 107.326 422.353 107.559 422.512 107.739C422.671 107.918 422.892 108.029 423.131 108.048C423.253 108.067 423.377 108.059 423.496 108.024C423.614 107.99 423.724 107.93 423.817 107.849C423.91 107.768 423.985 107.668 424.035 107.555C424.086 107.443 424.111 107.321 424.11 107.197C424.119 106.959 424.036 106.726 423.877 106.549C423.718 106.371 423.496 106.261 423.258 106.244C423.137 106.226 423.013 106.234 422.896 106.268C422.778 106.301 422.668 106.36 422.576 106.44C422.483 106.52 422.408 106.62 422.357 106.731C422.306 106.843 422.28 106.964 422.28 107.087Z" fill="#263238"/>
<path d="M422.212 105.87C422.322 105.997 423.063 105.495 424.041 105.521C425.02 105.546 425.744 106.066 425.871 105.946C425.999 105.827 425.812 105.674 425.497 105.436C425.078 105.119 424.567 104.946 424.041 104.942C423.521 104.926 423.009 105.075 422.578 105.368C422.271 105.597 422.16 105.81 422.212 105.87Z" fill="#263238"/>
<path d="M418.399 113.18C417.876 113 417.332 112.888 416.781 112.848C416.526 112.848 416.288 112.754 416.254 112.584C416.233 112.318 416.299 112.052 416.441 111.826L417.241 109.912C417.985 108.284 418.597 106.6 419.071 104.874C418.199 106.438 417.454 108.068 416.841 109.75C416.577 110.422 416.313 111.069 416.066 111.682C415.901 111.986 415.847 112.338 415.913 112.677C415.947 112.77 416.001 112.853 416.072 112.921C416.143 112.989 416.228 113.039 416.322 113.069C416.463 113.11 416.609 113.133 416.756 113.137C417.299 113.221 417.851 113.235 418.399 113.18Z" fill="#263238"/>
<path d="M417.403 124.983C420.808 125.12 424.184 124.309 427.157 122.643C427.157 122.643 424.68 127.554 417.454 126.694L417.403 124.983Z" fill="#A36957"/>
<path d="M425.412 102.968C425.208 103.283 424.442 103.147 423.59 102.968C422.739 102.79 421.99 102.645 421.888 102.279C421.786 101.913 422.68 101.428 423.82 101.658C424.961 101.887 425.616 102.696 425.412 102.968Z" fill="#263238"/>
<path d="M415.479 101.522C415.403 101.888 414.586 102.024 413.649 102.066C412.713 102.109 411.887 102.066 411.777 101.692C411.666 101.317 412.458 100.79 413.59 100.739C414.722 100.688 415.556 101.173 415.479 101.522Z" fill="#263238"/>
<path d="M418.416 115.571C418.308 115.545 418.195 115.557 418.095 115.603C417.995 115.649 417.913 115.728 417.862 115.826C417.814 115.913 417.789 116.011 417.79 116.11C417.791 116.21 417.818 116.307 417.868 116.393C417.919 116.478 417.991 116.549 418.077 116.599C418.163 116.648 418.261 116.674 418.36 116.674C418.46 116.674 418.557 116.648 418.644 116.599C418.73 116.549 418.802 116.478 418.852 116.393C418.902 116.307 418.929 116.21 418.931 116.11C418.932 116.011 418.907 115.913 418.858 115.826C418.797 115.712 418.699 115.622 418.58 115.571C418.461 115.519 418.328 115.511 418.203 115.545" fill="#A36957"/>
<path d="M418.645 115.673C418.645 115.63 418.484 115.383 418.05 115.477C417.92 115.511 417.801 115.578 417.706 115.672C417.61 115.767 417.541 115.884 417.505 116.013C417.459 116.176 417.463 116.349 417.516 116.51C417.569 116.671 417.669 116.812 417.803 116.915C417.944 117.012 418.112 117.064 418.284 117.064C418.455 117.064 418.623 117.012 418.765 116.915C418.878 116.839 418.967 116.732 419.021 116.607C419.075 116.482 419.093 116.344 419.071 116.209C418.986 115.758 418.654 115.69 418.637 115.749C418.62 115.809 418.756 115.962 418.73 116.226C418.725 116.291 418.703 116.354 418.668 116.409C418.632 116.464 418.583 116.509 418.526 116.541C418.46 116.579 418.385 116.599 418.309 116.599C418.233 116.599 418.158 116.579 418.092 116.541C418.033 116.491 417.987 116.426 417.961 116.353C417.934 116.28 417.926 116.201 417.939 116.124C417.949 116.057 417.975 115.993 418.015 115.938C418.055 115.883 418.108 115.839 418.169 115.809C418.407 115.664 418.62 115.732 418.645 115.673Z" fill="#263238"/>
<path d="M431.242 108.252C430.391 110.243 428.28 111.784 428.57 113.937C428.757 115.324 429.651 116.617 429.48 118.013C429.259 119.715 427.446 120.974 427.182 122.719C426.867 124.855 428.953 126.514 429.778 128.505C430.995 131.416 429.446 134.683 429.404 137.866C429.454 140.282 430.378 142.599 432.006 144.386C433.634 146.172 435.854 147.309 438.255 147.584C440.196 147.746 442.383 147.159 443.362 145.491C444.213 144.112 444.026 142.359 444.52 140.836C445.269 138.555 447.439 136.887 447.924 134.539C448.775 130.284 443.584 126.71 443.924 122.353C444.069 120.489 445.218 118.872 445.703 117.068C446.012 115.883 446.035 114.641 445.772 113.444C445.509 112.248 444.966 111.13 444.188 110.184C442.903 108.661 441.047 107.631 439.932 105.997C438.698 104.116 438.655 101.742 438.23 99.5212C437.658 96.8216 436.412 94.3109 434.606 92.2238C432.801 90.1367 430.496 88.5413 427.906 87.5867C425.316 86.6322 422.527 86.3497 419.799 86.7655C417.07 87.1814 414.492 88.2821 412.304 89.9648C412.304 89.9648 411.07 95.5727 416.832 96.5172C422.595 97.4618 425.259 96.3726 425.906 98.6787C425.753 99.6287 425.828 100.601 426.124 101.517C426.42 102.432 426.928 103.265 427.608 103.946C429.957 106.482 432.195 105.938 431.242 108.252Z" fill="#263238"/>
<path d="M440.392 147.15C440.214 147.156 440.037 147.139 439.864 147.099C439.365 147.011 438.875 146.877 438.4 146.699C436.643 146.026 435.101 144.887 433.94 143.406C433.126 142.384 432.488 141.233 432.051 140.002C431.553 138.6 431.292 137.124 431.276 135.637C431.258 133.997 431.465 132.362 431.889 130.777C432.121 129.941 432.405 129.119 432.74 128.318C433.091 127.521 433.401 126.705 433.668 125.876C433.902 125.058 433.902 124.192 433.668 123.374C433.419 122.569 433.097 121.789 432.706 121.042C432.312 120.302 431.978 119.531 431.71 118.736C431.448 117.95 431.387 117.11 431.532 116.294C431.872 114.694 432.842 113.503 433.421 112.286C433.972 111.159 434.235 109.914 434.187 108.661C434.11 106.827 433.444 105.067 432.289 103.64C431.842 103.14 431.361 102.671 430.851 102.236C431.447 102.571 431.98 103.009 432.425 103.529C433.665 104.954 434.395 106.75 434.502 108.635C434.572 109.943 434.315 111.247 433.753 112.43C433.166 113.69 432.221 114.89 431.932 116.353C431.642 117.817 432.332 119.357 433.089 120.838C433.502 121.606 433.839 122.413 434.093 123.246C434.345 124.137 434.345 125.079 434.093 125.969C433.81 126.828 433.484 127.672 433.115 128.497C432.78 129.281 432.496 130.085 432.263 130.905C431.841 132.449 431.632 134.044 431.642 135.645C431.616 138.372 432.496 141.03 434.144 143.202C435.247 144.665 436.714 145.812 438.4 146.529C439.668 147.023 440.4 147.099 440.392 147.15Z" fill="#455A64"/>
<path d="M439.541 104.21C439.126 104.317 438.701 104.38 438.272 104.397C437.105 104.522 435.925 104.491 434.766 104.304C433.887 104.173 433.043 103.869 432.283 103.409C431.523 102.949 430.862 102.342 430.34 101.623C429.853 100.714 429.465 99.7553 429.182 98.7637C428.819 97.7732 428.136 96.9319 427.242 96.3724C425.378 95.1896 423.19 95.0449 421.284 94.8152C419.525 94.7275 417.818 94.1946 416.322 93.2664C415.32 92.6025 414.596 91.5943 414.288 90.4326C414.213 90.1178 414.193 89.7926 414.228 89.471C414.228 89.2498 414.279 89.1392 414.296 89.1392C414.306 89.5606 414.36 89.9799 414.458 90.3901C414.81 91.4763 415.533 92.404 416.501 93.0111C417.969 93.8678 419.627 94.3473 421.326 94.4067C423.233 94.6279 425.497 94.7386 427.489 95.998C428.463 96.6099 429.206 97.5292 429.599 98.6105C429.866 99.5769 430.234 100.513 430.697 101.402C431.689 102.761 433.174 103.678 434.834 103.955C435.956 104.163 437.098 104.24 438.238 104.184C438.672 104.16 439.108 104.169 439.541 104.21Z" fill="#455A64"/>
<path d="M437.43 97.2835C437.109 97.3907 436.772 97.4397 436.434 97.4282C434.847 97.4388 433.32 96.8279 432.178 95.7262C431.658 95.2042 431.214 94.6112 430.859 93.9647C430.093 92.6712 429.353 91.0799 427.761 90.4161C426.228 89.9018 424.594 89.7589 422.995 89.9992C421.645 90.1887 420.276 90.1887 418.926 89.9992C417.987 89.8689 417.103 89.48 416.373 88.8759C416.184 88.7114 416.018 88.5225 415.879 88.3142C415.777 88.1667 415.735 88.0901 415.752 88.0845C415.752 88.0845 415.99 88.3568 416.484 88.7397C417.211 89.2573 418.057 89.5849 418.943 89.6928C420.268 89.8422 421.607 89.8193 422.927 89.6247C424.596 89.3522 426.307 89.4984 427.906 90.0502C428.728 90.4195 429.431 91.0084 429.94 91.7522C430.389 92.4156 430.801 93.103 431.174 93.8115C431.51 94.43 431.925 95.0021 432.408 95.5135C432.835 95.9458 433.326 96.3103 433.864 96.5942C434.655 97.0075 435.526 97.2482 436.417 97.3005C437.072 97.292 437.421 97.2409 437.43 97.2835Z" fill="#455A64"/>
<path d="M442.928 145.313C442.885 145.313 443.158 144.751 443.473 143.696C443.899 142.215 444.089 140.675 444.035 139.135C443.973 136.854 443.35 134.624 442.222 132.642C441.6 131.527 440.656 130.531 439.881 129.306C439.471 128.682 439.183 127.986 439.03 127.255C438.896 126.486 438.96 125.695 439.217 124.957C439.694 123.485 440.545 122.251 440.732 120.898C440.919 119.545 440.273 118.345 439.626 117.214C439.292 116.663 438.988 116.095 438.715 115.512C438.466 114.946 438.302 114.347 438.23 113.733C438.15 112.652 438.184 111.565 438.332 110.491C438.604 108.973 438.463 107.409 437.923 105.964C437.682 105.458 437.341 105.006 436.919 104.636C436.919 104.636 436.962 104.636 437.021 104.687C437.122 104.737 437.214 104.803 437.294 104.883C437.627 105.16 437.897 105.506 438.085 105.896C438.701 107.353 438.892 108.955 438.638 110.516C438.521 111.571 438.507 112.634 438.596 113.691C438.806 114.88 439.277 116.007 439.975 116.992C440.338 117.567 440.648 118.174 440.902 118.805C441.171 119.486 441.258 120.225 441.158 120.949C440.953 122.439 440.077 123.698 439.634 125.085C439.402 125.754 439.341 126.471 439.455 127.17C439.604 127.846 439.875 128.489 440.256 129.068C440.979 130.251 441.958 131.263 442.579 132.429C443.719 134.479 444.328 136.781 444.349 139.126C444.376 140.696 444.135 142.259 443.634 143.747C443.498 144.15 443.333 144.542 443.141 144.921C443.089 145.061 443.017 145.193 442.928 145.313Z" fill="#455A64"/>
<path d="M408.262 303.874C408.262 303.874 402.525 249.548 402.193 229.474C401.861 209.399 411.223 189.589 411.223 189.589L447.89 188.065C447.89 188.065 455.142 208.429 455.269 216.999C455.525 233.627 450.852 250.042 451.388 263.232L452.614 303.908" fill="#263238"/>
<path d="M453.848 237.082C453.657 237.248 453.455 237.401 453.244 237.541L452.912 237.771L452.554 238.12C452.239 238.392 451.954 238.698 451.703 239.03C450.52 240.477 449.661 243.072 448.835 246.298C448.413 248.087 447.791 249.822 446.979 251.472C446.733 251.923 446.448 252.353 446.128 252.756C445.975 252.961 445.83 253.182 445.652 253.378L445.09 253.939C444.285 254.691 443.351 255.291 442.332 255.709C440.281 256.611 437.957 257.037 435.847 258.101C433.684 259.264 432.013 261.167 431.14 263.462C430.102 265.768 429.438 268.185 428.587 270.448C427.735 272.712 426.586 274.873 424.756 276.252C423.007 277.467 420.929 278.123 418.799 278.132C416.824 278.252 414.994 278.192 413.351 278.439C411.873 278.592 410.46 279.126 409.249 279.988C408.365 280.679 407.702 281.614 407.342 282.677C407.114 283.347 407.064 284.066 407.198 284.762C407.3 285.238 407.427 285.468 407.402 285.476C407.265 285.263 407.167 285.026 407.113 284.779C406.933 284.069 406.957 283.323 407.181 282.626C407.519 281.51 408.186 280.522 409.096 279.792C410.337 278.855 411.806 278.268 413.351 278.09C415.054 277.818 416.867 277.852 418.816 277.724C420.884 277.71 422.899 277.07 424.595 275.886C426.315 274.383 427.585 272.433 428.263 270.252C429.114 268.014 429.736 265.589 430.817 263.24C431.733 260.851 433.479 258.873 435.736 257.667C437.932 256.577 440.256 256.16 442.256 255.292C443.235 254.887 444.134 254.311 444.911 253.59L445.447 253.054C445.618 252.867 445.762 252.654 445.916 252.459C446.216 252.072 446.481 251.659 446.707 251.225C447.523 249.598 448.153 247.886 448.588 246.119C449.439 242.902 450.367 240.273 451.618 238.818C451.867 238.486 452.153 238.183 452.469 237.915C452.605 237.796 452.725 237.677 452.844 237.584L453.193 237.362C453.405 237.256 453.624 237.162 453.848 237.082Z" fill="#FAFAFA"/>
<path d="M454.069 211.943C454.108 212.182 454.126 212.425 454.12 212.667C454.118 213.369 454.032 214.069 453.865 214.752C453.132 217.241 451.692 219.464 449.72 221.151C448.418 222.347 446.992 223.4 445.465 224.291C443.822 225.261 442.009 226.189 440.145 227.244C438.187 228.293 436.364 229.576 434.715 231.065C433.023 232.743 431.63 234.697 430.595 236.843C429.551 239.018 428.36 241.119 427.029 243.132C426.352 244.069 425.57 244.926 424.697 245.684C423.836 246.416 422.89 247.042 421.88 247.548C420.051 248.446 418.145 249.178 416.186 249.735C414.364 250.297 412.662 250.799 411.181 251.437C409.837 251.972 408.558 252.657 407.368 253.479C406.473 254.1 405.668 254.842 404.976 255.683C404.397 256.413 403.914 257.214 403.538 258.066C403.598 257.83 403.678 257.6 403.776 257.377C404.055 256.734 404.412 256.128 404.84 255.573C405.519 254.696 406.322 253.922 407.223 253.275C408.418 252.423 409.706 251.71 411.062 251.148C412.701 250.48 414.375 249.897 416.075 249.403C418.007 248.833 419.886 248.099 421.692 247.208C422.651 246.708 423.55 246.103 424.373 245.404C425.213 244.656 425.967 243.817 426.62 242.902C427.933 240.899 429.113 238.813 430.153 236.656C431.221 234.462 432.66 232.469 434.408 230.767C436.086 229.256 437.945 227.959 439.941 226.903C441.813 225.857 443.626 224.946 445.269 223.985C446.792 223.124 448.218 222.102 449.524 220.938C451.48 219.302 452.932 217.145 453.712 214.718C453.93 213.808 454.05 212.878 454.069 211.943Z" fill="#FAFAFA"/>
<path d="M402.38 232.316C402.347 232.263 402.321 232.206 402.304 232.146C402.24 231.982 402.186 231.814 402.142 231.644C401.996 230.967 402.025 230.264 402.227 229.601C402.704 227.899 404.585 225.712 407.615 224.632C409.13 224.113 410.84 223.781 412.628 223.338C414.112 223.092 415.516 222.495 416.723 221.597C417.929 220.698 418.904 219.524 419.565 218.173C420.049 217.181 420.472 216.161 420.833 215.118C421.498 212.853 422.403 210.665 423.531 208.591C424.824 206.552 426.786 205.027 429.08 204.276C431.168 203.599 433.297 203.059 435.455 202.66C437.381 202.29 439.246 201.654 440.996 200.77C442.479 199.924 443.757 198.762 444.741 197.366C446.194 195.352 447.023 192.955 447.124 190.474C447.128 189.563 447.068 188.653 446.945 187.75C447.203 188.635 447.32 189.553 447.294 190.474C447.261 193.009 446.46 195.475 444.996 197.545C444 198.986 442.694 200.187 441.175 201.06C439.401 201.976 437.507 202.638 435.549 203.025C433.411 203.431 431.301 203.974 429.233 204.651C427.03 205.372 425.147 206.837 423.905 208.795C422.795 210.841 421.902 212.997 421.241 215.228C420.873 216.29 420.439 217.328 419.939 218.334C419.435 219.302 418.793 220.19 418.033 220.972C416.538 222.335 414.698 223.263 412.713 223.653C410.909 224.113 409.206 224.402 407.717 224.895C404.763 225.9 402.891 227.967 402.389 229.618C402.182 230.255 402.127 230.931 402.227 231.593C402.299 231.829 402.35 232.071 402.38 232.316Z" fill="#FAFAFA"/>
<path d="M450.92 278.268C450.955 278.445 450.975 278.624 450.98 278.804C450.996 279.32 450.942 279.835 450.818 280.336C450.283 282.181 449.152 283.797 447.601 284.931C446.565 285.756 445.419 286.432 444.196 286.939C442.894 287.493 441.456 287.935 439.941 288.403C438.368 288.863 436.829 289.431 435.336 290.105C433.785 290.846 432.394 291.884 431.242 293.16C429.999 294.454 428.927 295.875 427.735 297.134C426.596 298.354 425.272 299.388 423.812 300.198C421.327 301.553 418.548 302.278 415.717 302.308C413.822 302.329 411.937 302.015 410.151 301.381C409.666 301.213 409.194 301.012 408.738 300.776C408.572 300.707 408.415 300.619 408.27 300.513C408.442 300.56 408.609 300.619 408.772 300.691C409.24 300.891 409.717 301.067 410.202 301.219C411.986 301.778 413.849 302.04 415.717 301.993C418.485 301.922 421.195 301.183 423.616 299.84C425.03 299.039 426.313 298.026 427.42 296.836C428.586 295.594 429.65 294.181 430.919 292.854C432.138 291.53 433.608 290.46 435.242 289.705C436.758 289.028 438.319 288.46 439.915 288.003C441.413 287.544 442.843 287.152 444.171 286.591C445.358 286.104 446.475 285.46 447.49 284.676C449.015 283.599 450.152 282.059 450.733 280.285C450.858 279.62 450.921 278.945 450.92 278.268Z" fill="#FAFAFA"/>
<path d="M446.741 165.481L439.643 165.651C439.37 167.082 438.827 168.448 438.043 169.676C432.085 159.379 427.514 145.593 426.374 140.054C426.544 139.5 426.74 138.888 426.986 138.207C427.163 137.173 427.132 136.114 426.893 135.092C426.689 133.859 426.348 132.199 426.246 131.433C425.931 129.085 425.548 128.719 424.731 128.982C423.624 129.348 425.191 135.56 424.28 135.697C423.786 135.765 423.19 133.637 423.02 131.893C422.85 130.148 422.05 124.77 421.48 124.413C420.629 123.885 419.888 124.719 420.109 126.455C420.331 128.191 420.594 133.467 419.675 133.544C418.756 133.62 417.973 124.702 417.973 124.702C417.973 124.702 418.118 122.762 417.045 122.804C415.122 122.889 416.628 132.284 416.79 133.178C416.909 133.79 415.939 133.91 415.82 133.237C415.7 132.565 415.258 124.328 413.266 124.396C411.751 124.396 414.432 132.131 413.581 133.918C412.73 135.705 412.151 127.859 410.713 127.961C410.177 128.004 409.777 128.106 410.764 132.54C411.71 136.062 412.846 139.531 414.168 142.93C416.449 155.226 426.459 194.567 442.145 187.368C450.929 183.334 454.486 165.481 454.486 165.481H446.741Z" fill="#B78876"/>
<path d="M416.483 133.773C416.55 133.79 416.621 133.79 416.688 133.773C416.79 133.742 416.878 133.675 416.936 133.584C416.994 133.494 417.017 133.386 417.003 133.28C417.003 132.752 416.901 131.986 416.781 130.99C416.582 129.79 416.451 128.58 416.39 127.365C416.39 126.65 416.39 125.885 416.432 125.076C416.445 124.665 416.488 124.256 416.56 123.851C416.628 123.468 416.883 123 417.181 123.076H417.232C417.53 123.076 417.769 123.298 417.862 123.655C417.968 124.025 418.008 124.411 417.981 124.795C418.157 127.179 418.461 129.551 418.892 131.901C418.96 132.216 419.028 132.539 419.13 132.863C419.176 133.028 419.233 133.19 419.301 133.348C419.344 133.435 419.393 133.52 419.445 133.603C419.484 133.665 419.536 133.717 419.598 133.756C419.66 133.794 419.73 133.818 419.803 133.824C419.927 133.811 420.044 133.76 420.139 133.68C420.235 133.6 420.304 133.493 420.339 133.373C420.412 133.207 420.466 133.033 420.501 132.854C420.567 132.511 420.613 132.164 420.637 131.816C420.715 130.398 420.695 128.976 420.577 127.561C420.47 126.854 420.441 126.138 420.492 125.425C420.523 125.117 420.673 124.833 420.909 124.634C420.964 124.601 421.025 124.581 421.088 124.573C421.151 124.566 421.215 124.572 421.275 124.591C421.347 124.608 421.416 124.637 421.48 124.676C421.523 124.709 421.555 124.753 421.573 124.804C421.841 125.494 422.038 126.21 422.161 126.94C422.314 127.689 422.441 128.463 422.561 129.237C422.68 130.012 422.79 130.795 422.884 131.586C422.957 132.403 423.088 133.213 423.275 134.011C423.376 134.419 423.504 134.82 423.659 135.211C423.745 135.43 423.866 135.634 424.016 135.815C424.073 135.891 424.151 135.948 424.24 135.982C424.329 136.015 424.425 136.022 424.518 136.003C424.604 135.974 424.682 135.924 424.743 135.857C424.804 135.79 424.847 135.708 424.867 135.62C424.968 135.185 424.999 134.737 424.961 134.292C424.961 133.867 424.91 133.441 424.867 133.033C424.808 132.318 424.739 131.612 424.714 130.914C424.692 130.571 424.692 130.227 424.714 129.884C424.731 129.732 424.768 129.584 424.825 129.442C424.842 129.395 424.868 129.352 424.901 129.314H425.012C425.574 129.084 425.761 129.867 425.914 130.497C426.067 131.127 426.127 131.841 426.263 132.514C426.484 133.85 426.774 135.186 426.918 136.462C427.017 137.073 426.994 137.698 426.85 138.3C426.646 138.913 426.442 139.517 426.246 140.121V140.181V140.232C427.243 144.413 428.514 148.523 430.05 152.537C431.395 156.171 432.749 159.345 433.932 161.898C435.115 164.451 436.187 166.45 436.919 167.795L437.77 169.318C437.862 169.5 437.974 169.671 438.102 169.829C438.031 169.64 437.942 169.458 437.838 169.284L436.987 167.727C436.289 166.357 435.285 164.323 434.127 161.77C432.97 159.217 431.659 156.043 430.348 152.409C428.849 148.402 427.603 144.303 426.62 140.138V140.258C426.816 139.662 427.012 139.058 427.216 138.453C427.393 137.79 427.428 137.097 427.318 136.42C427.165 135.084 426.884 133.79 426.663 132.446C426.535 131.782 426.45 131.101 426.314 130.403C426.305 130.045 426.245 129.689 426.135 129.348C426.038 129.14 425.873 128.972 425.667 128.871C425.449 128.8 425.213 128.8 424.995 128.871H424.859C424.786 128.895 424.72 128.932 424.663 128.982C424.568 129.062 424.495 129.165 424.45 129.28C424.372 129.464 424.323 129.659 424.305 129.859C424.28 130.227 424.28 130.597 424.305 130.965C424.305 131.68 424.407 132.395 424.467 133.109C424.467 133.526 424.535 133.96 424.552 134.343C424.586 134.727 424.566 135.114 424.493 135.492C424.493 135.577 424.425 135.56 424.493 135.603L424.442 135.552C424.333 135.413 424.247 135.258 424.186 135.092C424.038 134.724 423.915 134.346 423.82 133.96C423.633 133.185 423.505 132.397 423.437 131.603C423.346 130.803 423.236 130.012 423.105 129.229C422.986 128.446 422.85 127.68 422.697 126.914C422.568 126.135 422.351 125.372 422.05 124.642C421.991 124.52 421.9 124.417 421.786 124.344C421.687 124.287 421.581 124.241 421.471 124.208C421.35 124.176 421.223 124.169 421.099 124.186C420.975 124.204 420.855 124.246 420.748 124.31C420.572 124.441 420.426 124.607 420.317 124.798C420.209 124.988 420.141 125.199 420.118 125.417C420.063 125.803 420.063 126.196 420.118 126.582C420.118 126.948 420.203 127.306 420.228 127.663C420.347 129.055 420.372 130.454 420.305 131.85C420.285 132.181 420.242 132.511 420.177 132.837C420.153 132.989 420.11 133.138 420.05 133.28C420.028 133.336 419.996 133.387 419.956 133.433C419.956 133.509 419.896 133.433 419.905 133.535C419.905 133.45 419.905 133.535 419.905 133.424C419.867 133.367 419.833 133.307 419.803 133.245C419.743 133.109 419.692 132.956 419.641 132.811C419.548 132.505 419.479 132.19 419.411 131.884C418.967 129.554 418.646 127.202 418.45 124.838C418.475 124.41 418.426 123.981 418.305 123.57C418.249 123.355 418.134 123.161 417.973 123.008C417.89 122.928 417.791 122.865 417.683 122.824C417.574 122.783 417.459 122.765 417.343 122.77H417.394C417.25 122.749 417.103 122.771 416.971 122.833C416.84 122.895 416.729 122.994 416.654 123.119C416.527 123.322 416.44 123.547 416.398 123.783C416.327 124.205 416.287 124.631 416.279 125.059C416.279 125.91 416.279 126.65 416.279 127.374C416.36 128.596 416.516 129.813 416.747 131.016C416.892 132.003 417.003 132.769 417.054 133.288C417.07 133.379 417.054 133.473 417.009 133.553C416.964 133.634 416.893 133.697 416.807 133.731C416.552 133.756 416.475 133.765 416.483 133.773Z" fill="#A36957"/>
<path d="M361.049 177.198C359.388 177.163 357.73 177.354 356.121 177.768C351.721 178.925 344.137 183.521 343.823 189.197H349.338C349.338 189.197 346.248 195.766 347.15 195.154C349.508 193.571 354.189 188.814 354.189 188.814L361.049 177.198Z" fill="#B78876"/>
<path d="M436.23 78.2896C436.102 78.2896 435.608 73.7454 435.115 68.0779C434.621 62.4104 434.315 57.8662 434.434 57.8662C434.553 57.8662 435.055 62.4104 435.549 68.0779C436.042 73.7454 436.349 78.2896 436.23 78.2896Z" fill="#263238"/>
<path d="M460.41 58.215C460.504 58.2831 456.784 63.6868 452.095 70.2818C447.405 76.8768 443.515 82.1954 443.413 82.0933C443.311 81.9912 447.039 76.6216 451.729 70.0265C456.418 63.4315 460.308 58.1469 460.41 58.215Z" fill="#263238"/>
<path d="M470.454 82.7061C470.454 82.8253 466.13 83.8211 460.751 84.9275C455.372 86.034 450.98 86.8341 450.954 86.7149C450.929 86.5958 455.269 85.5999 460.657 84.4935C466.045 83.387 470.394 82.5869 470.454 82.7061Z" fill="#263238"/>
<path d="M181.01 199.587L150.88 354.294L146.965 374.547L347.831 373.577C356.853 373.534 364.854 365.527 367.739 353.63L403.368 207.578C405.572 198.549 400.738 189.154 393.894 189.163L190.542 189.375C186.117 189.367 182.15 193.554 181.01 199.587Z" fill="#FA6B7C"/>
<g opacity="0.5">
<path d="M181.01 199.587L150.88 354.294L146.965 374.547L347.831 373.577C356.853 373.534 364.854 365.527 367.739 353.63L403.368 207.578C405.572 198.549 400.738 189.154 393.894 189.163L190.542 189.375C186.117 189.367 182.15 193.554 181.01 199.587Z" fill="black"/>
</g>
<path d="M328.587 343.793L307.309 172.399C306.458 165.378 300.849 160.136 294.236 160.162L247.594 160.306C245.86 160.326 244.149 160.698 242.564 161.4C240.98 162.103 239.555 163.12 238.376 164.391L216.247 187.937L86.5344 188.635C78.6104 188.678 72.5163 196.183 73.5632 204.608L93.3179 363.017C94.1691 370.029 99.778 375.262 106.374 375.254L332.477 374.803C357.653 375.322 360.062 367.893 360.062 367.893C331.158 374.284 328.587 343.836 328.587 343.793Z" fill="#FA6B7C"/>
<g opacity="0.5">
<path d="M231.09 309.516L223.464 317.702L164.736 264.874L172.362 256.688L231.09 309.516Z" fill="white"/>
<path d="M220.272 254.875L228.698 262.457L175.562 319.515L167.128 311.933L220.272 254.875Z" fill="white"/>
</g>
<path d="M360.871 88.3138C360.595 88.1977 360.359 88.0056 360.188 87.76C360.018 87.5144 359.921 87.2253 359.909 86.9267L359.569 79.0297C359.557 78.7843 359.602 78.5395 359.701 78.3146C359.8 78.0898 359.95 77.891 360.139 77.7342C360.328 77.5773 360.551 77.4666 360.79 77.4108C361.03 77.355 361.279 77.3557 361.518 77.4128C362.177 77.555 362.858 77.5611 363.519 77.4309C364.181 77.3007 364.809 77.0368 365.365 76.6554C365.877 76.3315 366.317 75.9061 366.658 75.4056C366.999 74.905 367.234 74.3399 367.348 73.7451C367.425 73.1428 367.38 72.5312 367.217 71.9465C367.053 71.3618 366.773 70.8159 366.395 70.3412C365.996 69.8011 365.494 69.345 364.919 68.9989C364.343 68.6528 363.705 68.4236 363.041 68.3244C361.702 68.25 360.377 68.6295 359.28 69.4017C358.183 70.1739 357.379 71.2935 356.998 72.5793C356.871 72.9689 356.598 73.2944 356.237 73.4881C355.876 73.6818 355.454 73.7286 355.059 73.6189C354.664 73.5093 354.327 73.2515 354.117 72.8993C353.908 72.5471 353.842 72.1276 353.934 71.7283C354.513 69.7059 355.771 67.9445 357.496 66.7404C359.221 65.5362 361.309 64.9627 363.407 65.1162C364.499 65.2617 365.551 65.6252 366.5 66.1851C367.449 66.745 368.276 67.4899 368.931 68.3755C369.568 69.1963 370.035 70.1366 370.302 71.1408C370.57 72.1449 370.633 73.1926 370.489 74.2217C370.295 75.2493 369.893 76.2264 369.308 77.0928C368.722 77.9592 367.965 78.6965 367.084 79.2594C365.807 80.1189 364.316 80.6052 362.777 80.6635L363.041 86.7565C363.051 87.0242 362.993 87.2901 362.873 87.5294C362.753 87.7688 362.574 87.974 362.353 88.1259C362.133 88.2778 361.877 88.3715 361.61 88.3984C361.344 88.4253 361.075 88.3845 360.828 88.2797L360.871 88.3138Z" fill="#FA6B7C"/>
<path d="M363.203 91.5481C363.221 91.8052 363.162 92.0617 363.034 92.2854C362.906 92.509 362.715 92.6897 362.484 92.8045C362.253 92.9193 361.994 92.9632 361.738 92.9304C361.483 92.8977 361.243 92.7899 361.048 92.6206C360.854 92.4514 360.714 92.2283 360.647 91.9796C360.58 91.731 360.587 91.4679 360.669 91.2237C360.752 90.9795 360.904 90.7651 361.108 90.6077C361.312 90.4503 361.558 90.357 361.816 90.3395C361.986 90.3268 362.158 90.3481 362.32 90.4021C362.482 90.4561 362.632 90.5418 362.761 90.6542C362.891 90.7666 362.996 90.9035 363.072 91.0569C363.147 91.2104 363.192 91.3773 363.203 91.5481Z" fill="#FA6B7C"/>
<path d="M333.524 77.1748C333.56 77.0065 333.586 76.8359 333.6 76.6642C333.6 76.2898 333.694 75.8133 333.762 75.141C333.846 74.3156 333.985 73.4968 334.179 72.6902C334.29 72.2136 334.349 71.686 334.52 71.1499C334.69 70.6138 334.86 70.0351 335.047 69.448C336.033 66.5387 337.469 63.8022 339.303 61.3382C341.707 58.1476 344.754 55.4977 348.248 53.5603C350.237 52.4393 352.355 51.5648 354.555 50.9563C356.93 50.327 359.376 50.0066 361.832 50.0032C363.126 49.9825 364.42 50.0507 365.705 50.2075C366.36 50.2755 367.007 50.4457 367.663 50.5564C368.325 50.6699 368.979 50.8291 369.62 51.0329C372.303 51.7825 374.855 52.9391 377.187 54.4623C382.372 57.8248 386.322 62.7832 388.439 68.5885C389.579 71.6981 390.155 74.9861 390.141 78.2981C390.176 81.71 389.573 85.0984 388.362 88.2885L387.979 89.2586L387.928 89.3863L387.979 89.5139C390.115 94.424 392.235 99.2491 394.235 103.921L394.592 103.512L381.825 98.6193L381.672 98.5598L381.545 98.6789C378.167 101.951 374.033 104.336 369.51 105.623C365.645 106.687 361.598 106.919 357.637 106.304C353.676 105.69 349.89 104.242 346.529 102.057C343.777 100.253 341.35 97.9938 339.354 95.3771C336.461 91.5578 334.587 87.0658 333.907 82.3232C333.805 81.4722 333.72 80.7574 333.643 80.1107C333.566 79.4639 333.643 78.9363 333.6 78.4853C333.558 78.0343 333.6 77.7365 333.6 77.4897C333.643 77.4832 333.681 77.461 333.708 77.4274C333.735 77.3938 333.748 77.3514 333.745 77.3086C333.741 77.2658 333.722 77.2258 333.691 77.1966C333.659 77.1674 333.618 77.1512 333.575 77.1512C333.532 77.1512 333.491 77.1674 333.459 77.1966C333.428 77.2258 333.408 77.2658 333.405 77.3086C333.402 77.3514 333.415 77.3938 333.442 77.4274C333.468 77.461 333.507 77.4832 333.549 77.4897C333.549 77.7365 333.549 78.0683 333.549 78.4853C333.549 78.9023 333.549 79.481 333.549 80.1277C333.549 80.7744 333.694 81.5148 333.779 82.3572C334.059 84.4041 334.547 86.4171 335.235 88.3651C336.209 90.9377 337.52 93.3699 339.133 95.5984C341.137 98.2616 343.581 100.564 346.359 102.406C349.761 104.646 353.6 106.136 357.623 106.779C361.645 107.421 365.758 107.201 369.688 106.133C374.266 104.834 378.452 102.425 381.877 99.1214L381.596 99.181L394.363 104.1L395.001 104.346L394.72 103.691C392.694 99.0193 390.601 94.2028 388.473 89.2842V89.5309L388.864 88.5353C390.106 85.2756 390.724 81.8116 390.686 78.3236C390.712 74.9413 390.136 71.5813 388.983 68.4013C386.821 62.4803 382.783 57.4276 377.485 54.0113C375.094 52.4525 372.475 51.2754 369.722 50.5223C369.071 50.3163 368.405 50.1598 367.731 50.0543C367.067 49.9352 366.411 49.765 365.748 49.7054C364.446 49.5438 363.135 49.4699 361.824 49.4841C359.328 49.4947 356.844 49.8323 354.436 50.4883C352.207 51.1213 350.061 52.0183 348.044 53.1603C344.515 55.1453 341.449 57.8574 339.048 61.1169C337.219 63.6217 335.802 66.4026 334.852 69.3544C334.673 69.9671 334.503 70.5542 334.349 71.0563C334.214 71.5693 334.106 72.0891 334.026 72.6136C333.843 73.4258 333.724 74.2508 333.669 75.0814C333.617 75.7367 333.583 76.2387 333.558 76.6132C333.522 76.7981 333.511 76.9869 333.524 77.1748Z" fill="#263238"/>
</svg>
