<svg width="512" height="512" viewBox="0 0 512 512" fill="none" xmlns="http://www.w3.org/2000/svg">
<rect width="512" height="512" rx="105" fill="#10CAD1"/>
<path d="M115.2 87.6H294.4C328.532 87.6 409.6 113.2 409.6 220.159C409.6 318 329.171 352.717 294.4 352.717H187.734L115.2 433.2V272.235H277.333C277.333 272.235 324.266 271.762 324.266 220.159C324.266 168.556 277.333 168.083 277.333 168.083H115.2V87.6Z" fill="white"/>
<path d="M279.544 260.607H101.4V179.891H279.544C286.846 179.891 313.843 186.809 313.843 220.247C313.827 253.458 289.05 260.607 279.544 260.607ZM108.039 253.685H279.544C279.765 253.685 307.204 253.224 307.204 220.247C307.204 188.192 279.765 186.809 279.544 186.809H108.039V253.685Z" fill="white"/>
<path d="M278.428 234.089C285.151 234.089 290.601 228.41 290.601 221.404C290.601 214.398 285.151 208.719 278.428 208.719C271.706 208.719 266.256 214.398 266.256 221.404C266.256 228.41 271.706 234.089 278.428 234.089Z" fill="white"/>
</svg>
