<svg width="28" height="28" viewBox="0 0 28 28" fill="none" xmlns="http://www.w3.org/2000/svg">
<path d="M8.16667 3.5H4.66667C4.02233 3.5 3.5 4.02233 3.5 4.66667V8.16667C3.5 8.811 4.02233 9.33333 4.66667 9.33333H8.16667C8.811 9.33333 9.33333 8.811 9.33333 8.16667V4.66667C9.33333 4.02233 8.811 3.5 8.16667 3.5Z" stroke="#EE936C" stroke-width="2" stroke-linecap="round" stroke-linejoin="round"/>
<path d="M23.3334 3.5H19.8334C19.189 3.5 18.6667 4.02233 18.6667 4.66667V8.16667C18.6667 8.811 19.189 9.33333 19.8334 9.33333H23.3334C23.9777 9.33333 24.5 8.811 24.5 8.16667V4.66667C24.5 4.02233 23.9777 3.5 23.3334 3.5Z" stroke="#EE936C" stroke-width="2" stroke-linecap="round" stroke-linejoin="round"/>
<path d="M8.16667 18.6665H4.66667C4.02233 18.6665 3.5 19.1888 3.5 19.8332V23.3332C3.5 23.9775 4.02233 24.4998 4.66667 24.4998H8.16667C8.811 24.4998 9.33333 23.9775 9.33333 23.3332V19.8332C9.33333 19.1888 8.811 18.6665 8.16667 18.6665Z" stroke="#EE936C" stroke-width="2" stroke-linecap="round" stroke-linejoin="round"/>
<path d="M24.5 18.6665H21C20.3812 18.6665 19.7877 18.9123 19.3501 19.3499C18.9125 19.7875 18.6667 20.381 18.6667 20.9998V24.4998" stroke="#EE936C" stroke-width="2" stroke-linecap="round" stroke-linejoin="round"/>
<path d="M24.5 24.5V24.5117" stroke="#EE936C" stroke-width="2" stroke-linecap="round" stroke-linejoin="round"/>
<path d="M14 8.1665V11.6665C14 12.2853 13.7542 12.8788 13.3166 13.3164C12.879 13.754 12.2855 13.9998 11.6667 13.9998H8.16669" stroke="#EE936C" stroke-width="2" stroke-linecap="round" stroke-linejoin="round"/>
<path d="M3.5 14H3.51167" stroke="#EE936C" stroke-width="2" stroke-linecap="round" stroke-linejoin="round"/>
<path d="M14 3.5H14.0117" stroke="#EE936C" stroke-width="2" stroke-linecap="round" stroke-linejoin="round"/>
<path d="M14 18.6665V18.6782" stroke="#EE936C" stroke-width="2" stroke-linecap="round" stroke-linejoin="round"/>
<path d="M18.6667 14H19.8334" stroke="#EE936C" stroke-width="2" stroke-linecap="round" stroke-linejoin="round"/>
<path d="M24.5 14V14.0117" stroke="#EE936C" stroke-width="2" stroke-linecap="round" stroke-linejoin="round"/>
<path d="M14 24.5002V23.3335" stroke="#EE936C" stroke-width="2" stroke-linecap="round" stroke-linejoin="round"/>
</svg>
