<svg width="50" height="50" viewBox="0 0 50 50" fill="none" xmlns="http://www.w3.org/2000/svg">
<circle cx="25" cy="25" r="25" fill="#9BDAE4" fill-opacity="0.1"/>
<mask id="mask0_391_462" style="mask-type:alpha" maskUnits="userSpaceOnUse" x="13" y="13" width="24" height="24">
<rect x="13" y="13" width="24" height="24" fill="#D9D9D9"/>
</mask>
<g mask="url(#mask0_391_462)">
<path d="M20 36C19.45 36 18.9793 35.8043 18.588 35.413C18.196 35.021 18 34.55 18 34V16C18 15.45 18.196 14.979 18.588 14.587C18.9793 14.1957 19.45 14 20 14H30C30.55 14 31.021 14.1957 31.413 14.587C31.8043 14.979 32 15.45 32 16V34C32 34.55 31.8043 35.021 31.413 35.413C31.021 35.8043 30.55 36 30 36H20ZM20 31H30V19H20V31Z" fill="#9BDAE4"/>
</g>
</svg>
