<svg width="50" height="50" viewBox="0 0 50 50" fill="none" xmlns="http://www.w3.org/2000/svg">
<circle opacity="0.1" cx="25" cy="25" r="25" fill="#D4BFD7"/>
<mask id="mask0_391_462" style="mask-type:alpha" maskUnits="userSpaceOnUse" x="13" y="13" width="24" height="24">
<rect x="13" y="13" width="24" height="24" fill="#D9D9D9"/>
</mask>
<g mask="url(#mask0_391_462)">
<path d="M32.95 34C30.8 34 28.7043 33.5207 26.663 32.562C24.621 31.604 22.8127 30.3373 21.238 28.762C19.6627 27.1873 18.396 25.379 17.438 23.337C16.4793 21.2957 16 19.2 16 17.05C16 16.75 16.1 16.5 16.3 16.3C16.5 16.1 16.75 16 17.05 16H21.1C21.3333 16 21.5417 16.075 21.725 16.225C21.9083 16.375 22.0167 16.5667 22.05 16.8L22.7 20.3C22.7333 20.5333 22.7293 20.7457 22.688 20.937C22.646 21.129 22.55 21.3 22.4 21.45L20 23.9C20.7 25.1 21.575 26.225 22.625 27.275C23.675 28.325 24.8333 29.2333 26.1 30L28.45 27.65C28.6 27.5 28.796 27.3873 29.038 27.312C29.2793 27.2373 29.5167 27.2167 29.75 27.25L33.2 27.95C33.4333 28 33.625 28.1123 33.775 28.287C33.925 28.4623 34 28.6667 34 28.9V32.95C34 33.25 33.9 33.5 33.7 33.7C33.5 33.9 33.25 34 32.95 34Z" fill="#D4BFD7"/>
</g>
</svg>
