<svg width="50" height="50" viewBox="0 0 50 50" fill="none" xmlns="http://www.w3.org/2000/svg">
<circle opacity="0.1" cx="25" cy="25" r="25" fill="#97ACC2"/>
<mask id="mask0_391_462" style="mask-type:alpha" maskUnits="userSpaceOnUse" x="13" y="13" width="24" height="24">
<rect x="13" y="13" width="24" height="24" fill="#D9D9D9"/>
</mask>
<g mask="url(#mask0_391_462)">
<path d="M16 34V20H20V16H30V24H34V34H26V30H24V34H16ZM18 32H20V30H18V32ZM18 28H20V26H18V28ZM18 24H20V22H18V24ZM22 28H24V26H22V28ZM22 24H24V22H22V24ZM22 20H24V18H22V20ZM26 28H28V26H26V28ZM26 24H28V22H26V24ZM26 20H28V18H26V20ZM30 32H32V30H30V32ZM30 28H32V26H30V28Z" fill="#97ACC2"/>
</g>
</svg>
