<svg width="50" height="50" viewBox="0 0 50 50" fill="none" xmlns="http://www.w3.org/2000/svg">
<circle opacity="0.1" cx="25" cy="25" r="25" fill="#99CDF2"/>
<mask id="mask0_391_462" style="mask-type:alpha" maskUnits="userSpaceOnUse" x="13" y="13" width="24" height="24">
<rect x="13" y="13" width="24" height="24" fill="#D9D9D9"/>
</mask>
<g mask="url(#mask0_391_462)">
<path d="M21.75 35.4248C20.9833 35.4248 20.296 35.2248 19.688 34.8248C19.0793 34.4248 18.6083 33.8748 18.275 33.1748C18.0083 33.5248 17.671 33.7955 17.263 33.9868C16.8543 34.1788 16.4333 34.2748 16 34.2748C15.15 34.2748 14.4377 33.9831 13.863 33.3998C13.2877 32.8165 13 32.1081 13 31.2748C13 30.5581 13.2333 29.9121 13.7 29.3368C14.1667 28.7621 14.7583 28.4331 15.475 28.3498C15.2417 28.0165 15.0627 27.6621 14.938 27.2868C14.8127 26.9121 14.75 26.5165 14.75 26.0998C14.75 25.4331 14.921 24.8081 15.263 24.2248C15.6043 23.6415 16.0833 23.1665 16.7 22.7998C16.7833 23.0998 16.8957 23.4205 17.037 23.7618C17.179 24.1038 17.3417 24.3998 17.525 24.6498C17.2917 24.8331 17.1083 25.0538 16.975 25.3118C16.8417 25.5705 16.775 25.8415 16.775 26.1248C16.775 27.0581 17.1583 27.6331 17.925 27.8498C18.6917 28.0665 19.4167 28.2415 20.1 28.3748L20.575 29.1748C20.3917 29.7081 20.2333 30.1625 20.1 30.5378C19.9667 30.9125 19.9 31.2498 19.9 31.5498C19.9 32.0498 20.0793 32.4875 20.438 32.8628C20.796 33.2375 21.2333 33.4248 21.75 33.4248C22.3833 33.4248 22.9083 33.1415 23.325 32.5748C23.7417 32.0081 24.0833 31.3415 24.35 30.5748C24.6167 29.8081 24.821 29.0331 24.963 28.2498C25.1043 27.4665 25.2167 26.8665 25.3 26.4498L27.25 26.9748C27.1 27.7248 26.9167 28.5831 26.7 29.5498C26.4833 30.5165 26.1793 31.4371 25.788 32.3118C25.396 33.1871 24.8793 33.9248 24.238 34.5248C23.596 35.1248 22.7667 35.4248 21.75 35.4248ZM23.1 28.3248C22.3333 27.6415 21.6377 27.0038 21.013 26.4118C20.3877 25.8205 19.85 25.2458 19.4 24.6878C18.95 24.1291 18.6043 23.5705 18.363 23.0118C18.121 22.4538 18 21.8748 18 21.2748C18 20.1915 18.371 19.2788 19.113 18.5368C19.8543 17.7955 20.7667 17.4248 21.85 17.4248C21.9167 17.4248 21.975 17.4288 22.025 17.4368C22.075 17.4455 22.1333 17.4498 22.2 17.4498C22.1333 17.2831 22.0833 17.1165 22.05 16.9498C22.0167 16.7831 22 16.6081 22 16.4248C22 15.5915 22.2917 14.8831 22.875 14.2998C23.4583 13.7165 24.1667 13.4248 25 13.4248C25.8333 13.4248 26.5417 13.7165 27.125 14.2998C27.7083 14.8831 28 15.5915 28 16.4248C28 16.6081 27.9833 16.7788 27.95 16.9368C27.9167 17.0955 27.8667 17.2581 27.8 17.4248H28.15C29.15 17.4248 30 17.7455 30.7 18.3868C31.4 19.0288 31.8167 19.8248 31.95 20.7748C31.65 20.7248 31.3127 20.6998 30.938 20.6998C30.5627 20.6998 30.2167 20.7165 29.9 20.7498C29.7833 20.3665 29.571 20.0498 29.263 19.7998C28.9543 19.5498 28.5833 19.4248 28.15 19.4248C27.5667 19.4248 27.1127 19.5958 26.788 19.9378C26.4627 20.2791 26.0167 20.7748 25.45 21.4248H24.525C23.9417 20.7415 23.4877 20.2371 23.163 19.9118C22.8377 19.5871 22.4 19.4248 21.85 19.4248C21.3167 19.4248 20.875 19.5998 20.525 19.9498C20.175 20.2998 20 20.7415 20 21.2748C20 21.6581 20.1083 22.0538 20.325 22.4618C20.5417 22.8705 20.846 23.3038 21.238 23.7618C21.6293 24.2205 22.1043 24.7081 22.663 25.2248C23.221 25.7415 23.8417 26.2998 24.525 26.8998L23.1 28.3248ZM28.225 35.4248C27.8583 35.4248 27.496 35.3748 27.138 35.2748C26.7793 35.1748 26.4333 35.0165 26.1 34.7998C26.2833 34.5665 26.4667 34.2915 26.65 33.9748C26.8333 33.6581 27 33.3665 27.15 33.0998C27.3333 33.2165 27.5167 33.2998 27.7 33.3498C27.8833 33.3998 28.0667 33.4248 28.25 33.4248C28.7833 33.4248 29.229 33.2375 29.587 32.8628C29.9457 32.4875 30.125 32.0415 30.125 31.5248C30.125 31.2081 30.0583 30.8665 29.925 30.4998C29.7917 30.1331 29.6333 29.6831 29.45 29.1498L29.925 28.3498C30.625 28.2165 31.3543 28.0415 32.113 27.8248C32.871 27.6081 33.25 27.0331 33.25 26.0998C33.25 25.4331 33.0043 24.9498 32.513 24.6498C32.021 24.3498 31.4833 24.1998 30.9 24.1998C30.2 24.1998 29.3833 24.3331 28.45 24.5998C27.5167 24.8665 26.425 25.2081 25.175 25.6248L24.65 23.6748C25.95 23.2581 27.1083 22.9081 28.125 22.6248C29.1417 22.3415 30.075 22.1998 30.925 22.1998C32.075 22.1998 33.0833 22.5415 33.95 23.2248C34.8167 23.9081 35.25 24.8665 35.25 26.0998C35.25 26.5165 35.1873 26.9121 35.062 27.2868C34.9373 27.6621 34.7583 28.0165 34.525 28.3498C35.2417 28.4331 35.8333 28.7621 36.3 29.3368C36.7667 29.9121 37 30.5581 37 31.2748C37 32.1081 36.7127 32.8165 36.138 33.3998C35.5627 33.9831 34.85 34.2748 34 34.2748C33.5667 34.2748 33.146 34.1788 32.738 33.9868C32.3293 33.7955 31.9917 33.5248 31.725 33.1748C31.3917 33.8748 30.9207 34.4248 30.312 34.8248C29.704 35.2248 29.0083 35.4248 28.225 35.4248Z" fill="#99CDF2"/>
</g>
</svg>
