<svg width="50" height="50" viewBox="0 0 50 50" fill="none" xmlns="http://www.w3.org/2000/svg">
<circle opacity="0.1" cx="25" cy="25" r="25" fill="#F8D28F"/>
<mask id="mask0_391_462" style="mask-type:alpha" maskUnits="userSpaceOnUse" x="13" y="13" width="24" height="24">
<rect x="13" y="13" width="24" height="24" fill="#D9D9D9"/>
</mask>
<g mask="url(#mask0_391_462)">
<path d="M19 33C18.45 33 17.9793 32.8043 17.588 32.413C17.196 32.021 17 31.55 17 31C17 30.45 17.196 29.979 17.588 29.587C17.9793 29.1957 18.45 29 19 29C19.55 29 20.0207 29.1957 20.412 29.587C20.804 29.979 21 30.45 21 31C21 31.55 20.804 32.021 20.412 32.413C20.0207 32.8043 19.55 33 19 33ZM25 33C24.45 33 23.9793 32.8043 23.588 32.413C23.196 32.021 23 31.55 23 31C23 30.45 23.196 29.979 23.588 29.587C23.9793 29.1957 24.45 29 25 29C25.55 29 26.021 29.1957 26.413 29.587C26.8043 29.979 27 30.45 27 31C27 31.55 26.8043 32.021 26.413 32.413C26.021 32.8043 25.55 33 25 33ZM31 33C30.45 33 29.979 32.8043 29.587 32.413C29.1957 32.021 29 31.55 29 31C29 30.45 29.1957 29.979 29.587 29.587C29.979 29.1957 30.45 29 31 29C31.55 29 32.021 29.1957 32.413 29.587C32.8043 29.979 33 30.45 33 31C33 31.55 32.8043 32.021 32.413 32.413C32.021 32.8043 31.55 33 31 33ZM19 27C18.45 27 17.9793 26.804 17.588 26.412C17.196 26.0207 17 25.55 17 25C17 24.45 17.196 23.979 17.588 23.587C17.9793 23.1957 18.45 23 19 23C19.55 23 20.0207 23.1957 20.412 23.587C20.804 23.979 21 24.45 21 25C21 25.55 20.804 26.0207 20.412 26.412C20.0207 26.804 19.55 27 19 27ZM25 27C24.45 27 23.9793 26.804 23.588 26.412C23.196 26.0207 23 25.55 23 25C23 24.45 23.196 23.979 23.588 23.587C23.9793 23.1957 24.45 23 25 23C25.55 23 26.021 23.1957 26.413 23.587C26.8043 23.979 27 24.45 27 25C27 25.55 26.8043 26.0207 26.413 26.412C26.021 26.804 25.55 27 25 27ZM31 27C30.45 27 29.979 26.804 29.587 26.412C29.1957 26.0207 29 25.55 29 25C29 24.45 29.1957 23.979 29.587 23.587C29.979 23.1957 30.45 23 31 23C31.55 23 32.021 23.1957 32.413 23.587C32.8043 23.979 33 24.45 33 25C33 25.55 32.8043 26.0207 32.413 26.412C32.021 26.804 31.55 27 31 27ZM19 21C18.45 21 17.9793 20.804 17.588 20.412C17.196 20.0207 17 19.55 17 19C17 18.45 17.196 17.9793 17.588 17.588C17.9793 17.196 18.45 17 19 17C19.55 17 20.0207 17.196 20.412 17.588C20.804 17.9793 21 18.45 21 19C21 19.55 20.804 20.0207 20.412 20.412C20.0207 20.804 19.55 21 19 21ZM25 21C24.45 21 23.9793 20.804 23.588 20.412C23.196 20.0207 23 19.55 23 19C23 18.45 23.196 17.9793 23.588 17.588C23.9793 17.196 24.45 17 25 17C25.55 17 26.021 17.196 26.413 17.588C26.8043 17.9793 27 18.45 27 19C27 19.55 26.8043 20.0207 26.413 20.412C26.021 20.804 25.55 21 25 21ZM31 21C30.45 21 29.979 20.804 29.587 20.412C29.1957 20.0207 29 19.55 29 19C29 18.45 29.1957 17.9793 29.587 17.588C29.979 17.196 30.45 17 31 17C31.55 17 32.021 17.196 32.413 17.588C32.8043 17.9793 33 18.45 33 19C33 19.55 32.8043 20.0207 32.413 20.412C32.021 20.804 31.55 21 31 21Z" fill="#F8D28F"/>
</g>
</svg>
