<svg width="50" height="50" viewBox="0 0 50 50" fill="none" xmlns="http://www.w3.org/2000/svg">
<circle opacity="0.1" cx="25" cy="25" r="25" fill="#A9E29E"/>
<mask id="mask0_391_462" style="mask-type:alpha" maskUnits="userSpaceOnUse" x="13" y="13" width="24" height="24">
<rect x="13" y="13" width="24" height="24" fill="#D9D9D9"/>
</mask>
<g mask="url(#mask0_391_462)">
<path d="M21 34V32H23V30H17C16.45 30 15.9793 29.8043 15.588 29.413C15.196 29.021 15 28.55 15 28V18C15 17.45 15.196 16.979 15.588 16.587C15.9793 16.1957 16.45 16 17 16H33C33.55 16 34.021 16.1957 34.413 16.587C34.8043 16.979 35 17.45 35 18V28C35 28.55 34.8043 29.021 34.413 29.413C34.021 29.8043 33.55 30 33 30H27V32H29V34H21Z" fill="#A9E29E"/>
</g>
</svg>
