<svg width="166" height="166" viewBox="0 0 166 166" fill="none" xmlns="http://www.w3.org/2000/svg">
<g clip-path="url(#clip0_282_600)">
<path d="M0.0120178 23.2258C0.0120178 20.1367 -0.0101125 17.0476 0.0166282 13.9593C0.0719539 7.56345 4.33387 2.10352 10.5174 0.473194C11.6811 0.166125 12.8706 0.0167399 14.073 0.0148957C20.181 0.00844076 26.2899 -0.0164567 32.3978 0.0195063C39.1346 0.0591579 44.7253 4.59143 46.149 11.1478C46.3629 12.1308 46.4634 13.1571 46.468 14.1641C46.4966 20.2261 46.5049 26.2891 46.4763 32.3512C46.445 39.0044 42.0669 44.575 35.6832 46.0965C34.7491 46.3187 33.7717 46.4571 32.8137 46.4617C26.4291 46.493 20.0436 46.5271 13.659 46.4644C6.87516 46.3971 1.0503 41.1566 0.15402 34.4177C0.0544341 33.6671 0.0193945 32.9027 0.0157061 32.1447C3.05283e-05 29.1708 0.00925147 26.1979 0.00925147 23.224H0.0110957L0.0120178 23.2258ZM23.2322 39.8472C25.3521 39.8472 27.472 39.8509 29.5919 39.8445C30.0751 39.8426 30.5638 39.8463 31.0405 39.7818C36.0843 39.1012 39.781 34.9784 39.8327 29.8993C39.8778 25.4758 39.8566 21.0505 39.8354 16.6261C39.8262 14.7192 39.3227 12.9293 38.2688 11.3304C36.254 8.27257 33.3854 6.70034 29.7357 6.66161C25.4046 6.61458 21.0717 6.6487 16.7397 6.65423C16.3497 6.65423 15.9578 6.69296 15.5687 6.73538C10.523 7.29235 6.69259 11.4853 6.65663 16.5515C6.62436 21.0219 6.64003 25.4924 6.66032 29.9629C6.66308 30.6481 6.73962 31.348 6.89084 32.0156C7.94018 36.641 11.9089 39.8131 16.6641 39.8445C18.8532 39.8592 21.0422 39.8472 23.2313 39.8481L23.2322 39.8472Z" fill="#058288"/>
<path d="M142.743 46.4834C139.631 46.4834 136.519 46.5065 133.408 46.4788C127.133 46.4226 121.708 42.2545 120.018 36.2146C119.706 35.1016 119.521 33.9655 119.52 32.8055C119.52 26.4437 119.475 20.081 119.532 13.7192C119.591 7.10662 124.552 1.3636 131.066 0.259808C131.881 0.121488 132.714 0.0255865 133.538 0.0228201C139.669 0.00345541 145.801 -0.0168315 151.932 0.0200537C157.89 0.0550947 163.039 3.67445 165.098 9.18695C165.685 10.7583 165.978 12.3867 165.981 14.0576C165.993 20.1889 166.019 26.321 165.976 32.4523C165.927 39.2936 161.248 44.914 154.548 46.2354C153.673 46.4078 152.764 46.4659 151.871 46.4742C148.829 46.5028 145.786 46.4853 142.743 46.4853V46.4834V46.4834ZM142.705 39.8468C144.871 39.8468 147.037 39.8681 149.203 39.8358C149.981 39.8247 150.775 39.7657 151.53 39.5923C156.145 38.5319 159.312 34.5621 159.341 29.7919C159.369 25.4367 159.353 21.0815 159.341 16.7263C159.339 16.1297 159.287 15.5257 159.179 14.9392C158.307 10.205 154.355 6.75621 149.548 6.6723C145.01 6.59392 140.468 6.58654 135.93 6.6723C130.46 6.7765 126.186 11.1917 126.158 16.6562C126.135 21.0575 126.143 25.4589 126.164 29.8602C126.166 30.5693 126.234 31.2922 126.388 31.9829C127.417 36.6037 131.399 39.8063 136.139 39.8413C138.328 39.8579 140.517 39.8441 142.706 39.845L142.705 39.8468Z" fill="#058288"/>
<path d="M23.1887 165.992C20.0997 165.992 17.0107 166.013 13.9226 165.987C7.83956 165.937 2.56242 162.052 0.680426 156.269C0.257185 154.968 0.015596 153.634 0.015596 152.263C0.0137518 145.948 -0.0249761 139.631 0.024817 133.315C0.0773763 126.613 4.99767 120.894 11.6128 119.762C12.4491 119.619 13.3067 119.533 14.155 119.53C20.2168 119.511 26.2796 119.499 32.3414 119.526C38.8588 119.555 44.3314 123.771 46.0041 129.995C46.3287 131.204 46.479 132.437 46.4799 133.686C46.4864 139.748 46.5076 145.811 46.4762 151.873C46.4403 158.785 41.7487 164.451 34.9971 165.756C34.099 165.929 33.1658 165.975 32.2483 165.984C29.2294 166.011 26.2095 165.994 23.1897 165.994L23.1887 165.992ZM23.2302 159.353C25.3501 159.353 27.47 159.357 29.5899 159.351C30.0731 159.349 30.5618 159.353 31.0385 159.288C36.0815 158.609 39.78 154.486 39.8325 149.406C39.8777 144.983 39.8547 140.558 39.8362 136.133C39.8289 134.423 39.4241 132.792 38.5527 131.312C36.5785 127.961 33.6167 126.22 29.7384 126.169C25.4073 126.113 21.0744 126.154 16.7424 126.16C16.3523 126.16 15.9604 126.198 15.5713 126.241C10.5247 126.798 6.6934 130.99 6.65744 136.055C6.62517 140.525 6.64084 144.996 6.66113 149.466C6.66389 150.152 6.74043 150.851 6.89165 151.519C7.94007 156.144 11.9097 159.318 16.664 159.35C18.8531 159.365 21.0421 159.353 23.2312 159.353H23.2302Z" fill="#058288"/>
<path d="M122.787 112.464C116.288 112.464 109.789 112.466 103.29 112.459C102.902 112.459 102.498 112.451 102.127 112.353C100.741 111.982 99.8996 110.716 100.027 109.258C100.147 107.884 101.282 106.798 102.741 106.669C102.969 106.648 103.201 106.656 103.431 106.656C116.36 106.656 129.289 106.655 142.217 106.659C142.606 106.659 143.004 106.677 143.383 106.758C144.766 107.052 145.751 108.372 145.643 109.744C145.526 111.235 144.37 112.382 142.906 112.456C142.653 112.469 142.399 112.463 142.145 112.463C135.692 112.463 129.24 112.463 122.787 112.463V112.464Z" fill="#058288"/>
<path d="M126.112 158.939C120.72 158.939 115.327 158.941 109.935 158.935C109.547 158.935 109.143 158.928 108.772 158.83C107.386 158.462 106.541 157.196 106.666 155.739C106.783 154.364 107.915 153.276 109.374 153.145C109.603 153.124 109.834 153.132 110.065 153.132C120.78 153.132 131.496 153.13 142.212 153.135C142.624 153.135 143.045 153.156 143.445 153.246C144.811 153.557 145.78 154.922 145.636 156.283C145.481 157.754 144.349 158.857 142.911 158.931C142.658 158.944 142.404 158.938 142.15 158.938C136.804 158.938 131.457 158.938 126.111 158.938L126.112 158.939Z" fill="#058288"/>
<path d="M126.105 139.021C120.712 139.021 115.32 139.023 109.927 139.017C109.539 139.017 109.135 139.008 108.765 138.909C107.379 138.537 106.538 137.271 106.665 135.813C106.785 134.439 107.921 133.353 109.381 133.226C109.609 133.205 109.841 133.214 110.071 133.214C120.787 133.214 131.503 133.212 142.218 133.217C142.607 133.217 143.005 133.236 143.384 133.316C144.767 133.611 145.751 134.932 145.642 136.304C145.523 137.796 144.369 138.941 142.903 139.015C142.651 139.028 142.396 139.021 142.143 139.021C136.796 139.021 131.45 139.021 126.104 139.021H126.105Z" fill="#058288"/>
<path d="M56.4489 59.3494C52.1399 59.3494 47.831 59.3512 43.5221 59.3457C43.156 59.3457 42.777 59.3438 42.4257 59.2562C41.0416 58.9113 40.1702 57.6508 40.2717 56.1966C40.3685 54.8152 41.4787 53.7124 42.9356 53.5575C43.1182 53.5381 43.3035 53.5418 43.4879 53.5418C52.1058 53.5418 60.7246 53.5399 69.3425 53.5464C69.7307 53.5464 70.13 53.5787 70.5044 53.6755C71.8239 54.0158 72.758 55.3888 72.6058 56.7148C72.4408 58.1598 71.3296 59.2525 69.9299 59.3392C69.6773 59.3549 69.4228 59.3494 69.1701 59.3494C64.9303 59.3494 60.6905 59.3494 56.4498 59.3494H56.4489Z" fill="#058288"/>
<path d="M69.7445 139.021C65.4356 139.021 61.1267 139.024 56.8177 139.017C56.4295 139.017 56.0266 139.009 55.6549 138.91C54.269 138.539 53.4272 137.274 53.5535 135.816C53.6724 134.442 54.8066 133.355 56.2663 133.226C56.495 133.205 56.7264 133.213 56.9569 133.213C65.4596 133.213 73.9631 133.211 82.4658 133.216C82.8549 133.216 83.2523 133.234 83.6313 133.315C85.0144 133.609 85.9992 134.928 85.8913 136.3C85.7742 137.791 84.6207 138.954 83.1555 139.008C82.2122 139.043 81.2661 139.019 80.3219 139.02C76.7967 139.02 73.2706 139.02 69.7455 139.02L69.7445 139.021Z" fill="#058288"/>
<path d="M122.824 92.546C118.538 92.546 114.252 92.5469 109.966 92.5441C109.621 92.5441 109.269 92.5524 108.933 92.487C107.628 92.2297 106.677 91.0586 106.655 89.7233C106.632 88.3586 107.499 87.1838 108.8 86.8601C109.131 86.7781 109.484 86.7439 109.826 86.7439C118.49 86.7375 127.155 86.7366 135.819 86.7412C137.514 86.7412 138.667 87.6467 138.955 89.1728C139.257 90.7746 138.066 92.3708 136.443 92.5275C136.168 92.5543 135.891 92.5469 135.614 92.5469C131.351 92.5478 127.088 92.5469 122.826 92.5469L122.824 92.546Z" fill="#058288"/>
<path d="M49.8273 99.1853C45.5184 99.1853 41.2094 99.1881 36.9005 99.1807C36.5123 99.1807 36.1084 99.1733 35.7377 99.0737C34.3518 98.7039 33.51 97.4379 33.6354 95.98C33.7543 94.606 34.8885 93.5188 36.3472 93.3897C36.5759 93.3694 36.8074 93.3768 37.0379 93.3768C45.5405 93.3768 54.0441 93.3749 62.5467 93.3805C62.9358 93.3805 63.3332 93.398 63.7122 93.4792C65.0954 93.7733 66.0802 95.092 65.9732 96.4641C65.857 97.9552 64.7026 99.1189 63.2373 99.1733C62.294 99.2083 61.348 99.1844 60.4038 99.1853C56.8786 99.1853 53.3525 99.1853 49.8273 99.1853V99.1853Z" fill="#058288"/>
<path d="M16.5619 59.3494C12.276 59.3494 7.99006 59.3521 3.70417 59.3447C3.31597 59.3447 2.91301 59.3374 2.54141 59.2378C1.1555 58.8671 0.313628 57.601 0.440877 56.1431C0.559827 54.7691 1.69493 53.6829 3.15368 53.5538C3.38236 53.5335 3.6138 53.5409 3.84433 53.5409C12.347 53.5409 20.8505 53.539 29.3531 53.5445C29.7423 53.5445 30.1397 53.5621 30.5187 53.6432C31.9018 53.9374 32.8857 55.2569 32.7778 56.6291C32.6607 58.1202 31.5062 59.2839 30.041 59.3364C29.0747 59.3715 28.1055 59.3484 27.1383 59.3484C23.6131 59.3484 20.087 59.3484 16.5619 59.3484V59.3494Z" fill="#058288"/>
<path d="M33.1584 112.464C29.8868 112.464 26.6143 112.447 23.3427 112.472C22.0776 112.481 20.9655 111.743 20.5284 110.617C19.8184 108.787 21.0679 106.848 23.0707 106.669C23.2993 106.649 23.5308 106.656 23.7613 106.656C30.0518 106.656 36.3414 106.654 42.632 106.659C42.998 106.659 43.3724 106.672 43.7302 106.744C45.1567 107.028 46.1663 108.346 46.0566 109.744C45.9367 111.263 44.762 112.431 43.2516 112.454C41.1787 112.484 39.104 112.463 37.0302 112.464C35.7402 112.464 34.4493 112.464 33.1593 112.464H33.1584Z" fill="#058288"/>
<path d="M86.3191 12.8737C83.0936 12.8737 79.8672 12.8764 76.6417 12.87C76.2987 12.87 75.9437 12.8626 75.6145 12.7796C74.2314 12.4292 73.3627 11.1696 73.4669 9.71536C73.5656 8.33493 74.6786 7.23391 76.1355 7.08176C76.3411 7.06055 76.5495 7.06608 76.757 7.06608C83.1167 7.06608 89.4754 7.06424 95.8351 7.06977C96.2012 7.06977 96.5755 7.09282 96.9305 7.1712C98.3072 7.47458 99.2874 8.80706 99.1666 10.1755C99.0348 11.6703 97.8822 12.8174 96.4105 12.8617C95.2597 12.8967 94.1062 12.8727 92.9545 12.8727C90.7424 12.8727 88.5303 12.8727 86.3191 12.8727V12.8737Z" fill="#058288"/>
<path d="M59.7866 105.825C56.4919 105.825 53.1964 105.808 49.9017 105.833C48.6366 105.842 47.5246 105.106 47.0856 103.979C46.3738 102.151 47.6214 100.211 49.6242 100.03C49.8529 100.01 50.0843 100.017 50.3148 100.017C56.6053 100.017 62.895 100.015 69.1855 100.02C69.5515 100.02 69.9259 100.033 70.2837 100.104C71.7111 100.388 72.7208 101.704 72.612 103.102C72.4939 104.62 71.3183 105.791 69.8088 105.813C67.759 105.844 65.7073 105.824 63.6566 105.824C62.3666 105.824 61.0757 105.824 59.7856 105.824L59.7866 105.825Z" fill="#058288"/>
<path d="M66.3521 79.2673C63.0806 79.2673 59.808 79.2507 56.5365 79.2756C55.2732 79.2848 54.1593 78.5453 53.7231 77.4184C53.0141 75.5889 54.2653 73.6506 56.2681 73.4727C56.4968 73.4524 56.7282 73.4607 56.9588 73.4607C63.2493 73.4607 69.5389 73.4588 75.8294 73.4634C76.1955 73.4634 76.5699 73.4773 76.9276 73.5483C78.3541 73.8332 79.3629 75.1528 79.2513 76.5507C79.1305 78.0695 77.9549 79.236 76.4445 79.2581C74.3255 79.2885 72.2047 79.2673 70.0857 79.2682C68.8418 79.2682 67.597 79.2682 66.3531 79.2682L66.3521 79.2673Z" fill="#058288"/>
<path d="M86.274 125.742C83.0024 125.742 79.7299 125.726 76.4583 125.751C75.195 125.76 74.0811 125.025 73.6422 123.897C72.9303 122.069 74.1789 120.129 76.1816 119.948C76.4103 119.928 76.6418 119.935 76.8723 119.935C83.1628 119.935 89.4524 119.933 95.7429 119.938C96.109 119.938 96.4834 119.951 96.8412 120.022C98.2686 120.306 99.2783 121.622 99.1695 123.021C99.0514 124.539 97.8758 125.709 96.3663 125.732C94.3395 125.763 92.3109 125.742 90.2832 125.742C88.9471 125.742 87.6101 125.742 86.274 125.742V125.742Z" fill="#058288"/>
<path d="M132.774 85.9064C129.572 85.9064 126.368 85.9092 123.166 85.9027C122.8 85.9027 122.421 85.8963 122.07 85.8059C120.684 85.4472 119.828 84.1876 119.941 82.7297C120.048 81.352 121.169 80.2556 122.627 80.1136C122.856 80.0915 123.087 80.0988 123.318 80.0988C129.631 80.0988 135.944 80.0961 142.258 80.1034C142.669 80.1034 143.092 80.1274 143.49 80.2233C144.82 80.5433 145.767 81.8915 145.639 83.2276C145.498 84.6966 144.367 85.817 142.935 85.899C142.706 85.9119 142.474 85.9073 142.245 85.9073C139.088 85.9073 135.931 85.9073 132.775 85.9073L132.774 85.9064Z" fill="#058288"/>
<path d="M69.6815 19.5123C67.4934 19.5123 65.3043 19.5215 63.1162 19.5095C61.8354 19.5021 60.7999 18.7949 60.3647 17.6745C59.6537 15.8459 60.8949 13.9048 62.8967 13.7185C63.1024 13.6992 63.3107 13.7056 63.5182 13.7056C67.6418 13.7056 71.7654 13.7038 75.89 13.7084C76.2108 13.7084 76.5373 13.7176 76.8517 13.7766C78.3234 14.0496 79.3607 15.3608 79.2528 16.7865C79.1366 18.3283 77.9407 19.4901 76.387 19.5067C74.1527 19.5298 71.9176 19.5123 69.6833 19.5132L69.6815 19.5123Z" fill="#058288"/>
<path d="M96.2324 165.578C94.0443 165.578 91.8552 165.587 89.6671 165.574C88.3882 165.567 87.3527 164.856 86.9193 163.734C86.212 161.903 87.4559 159.965 89.4587 159.783C89.6643 159.765 89.8727 159.771 90.0802 159.77C94.2038 159.77 98.3274 159.767 102.452 159.773C102.795 159.773 103.145 159.79 103.481 159.856C104.907 160.142 105.918 161.457 105.809 162.856C105.691 164.373 104.516 165.546 103.007 165.567C100.75 165.596 98.4916 165.574 96.2343 165.574V165.577L96.2324 165.578Z" fill="#058288"/>
<path d="M109.547 65.9868C107.335 65.9868 105.123 65.9979 102.912 65.9831C101.643 65.9748 100.611 65.2445 100.187 64.1121C99.5095 62.2992 100.729 60.3969 102.701 60.1959C102.907 60.1746 103.115 60.1811 103.322 60.1811C107.469 60.1811 111.616 60.1793 115.762 60.1839C116.083 60.1839 116.41 60.1986 116.723 60.2595C118.185 60.5435 119.215 61.8806 119.084 63.2997C118.944 64.8213 117.771 65.9629 116.251 65.9804C114.017 66.0062 111.782 65.9868 109.547 65.9878L109.547 65.9868Z" fill="#058288"/>
<path d="M96.2352 39.4304C94.0471 39.4304 91.8581 39.4396 89.6699 39.4267C88.3901 39.4194 87.3555 38.7102 86.9202 37.5889C86.2112 35.7594 87.4541 33.8193 89.456 33.6358C89.6616 33.6173 89.87 33.6228 90.0775 33.6228C94.2011 33.6228 98.3247 33.6201 102.448 33.6256C102.791 33.6256 103.142 33.6413 103.477 33.7086C104.905 33.9935 105.915 35.3076 105.808 36.7065C105.692 38.2234 104.517 39.4 103.008 39.4194C100.751 39.4489 98.4925 39.4267 96.2352 39.4267V39.4295V39.4304Z" fill="#058288"/>
<path d="M155.981 125.742C153.791 125.742 151.603 125.751 149.415 125.738C148.137 125.731 147.103 125.018 146.67 123.894C145.966 122.062 147.212 120.126 149.214 119.946C149.42 119.928 149.628 119.934 149.836 119.934C153.959 119.934 158.083 119.931 162.207 119.937C162.55 119.937 162.901 119.954 163.236 120.021C164.662 120.308 165.672 121.625 165.56 123.023C165.439 124.541 164.265 125.711 162.754 125.731C160.497 125.76 158.239 125.738 155.981 125.738V125.74L155.981 125.742Z" fill="#058288"/>
<path d="M156.029 165.578C153.818 165.578 151.605 165.588 149.394 165.574C148.123 165.566 147.09 164.842 146.664 163.71C145.982 161.9 147.197 159.994 149.167 159.787C149.35 159.767 149.535 159.771 149.72 159.771C153.912 159.771 158.105 159.768 162.298 159.775C162.641 159.775 162.991 159.802 163.324 159.876C164.7 160.181 165.679 161.515 165.559 162.882C165.426 164.377 164.273 165.543 162.802 165.565C160.545 165.6 158.287 165.574 156.03 165.574V165.578H156.029Z" fill="#058288"/>
<path d="M156.029 99.1842C153.818 99.1842 151.606 99.1943 149.395 99.1805C148.123 99.1722 147.09 98.4483 146.663 97.3178C145.98 95.5086 147.195 93.6007 149.165 93.3932C149.348 93.3739 149.533 93.3775 149.717 93.3775C153.91 93.3775 158.103 93.3748 162.296 93.3812C162.639 93.3812 162.989 93.408 163.322 93.4827C164.698 93.7879 165.678 95.1194 165.557 96.4879C165.425 97.9827 164.273 99.1492 162.802 99.1713C160.545 99.2063 158.286 99.1805 156.029 99.1805V99.1842V99.1842Z" fill="#058288"/>
<path d="M119.496 72.6277C118.414 72.6277 117.331 72.6065 116.249 72.6323C114.574 72.6729 113.292 71.2722 113.289 69.7968C113.284 68.1489 114.491 66.8589 116.193 66.8312C118.403 66.7952 120.616 66.7962 122.826 66.8321C124.382 66.857 125.532 67.9479 125.715 69.4657C125.877 70.8194 124.934 72.1768 123.562 72.5318C123.277 72.6056 122.97 72.5982 122.674 72.6268C122.628 72.6314 122.581 72.6268 122.535 72.6268C121.522 72.6268 120.509 72.6268 119.495 72.6268L119.496 72.6277Z" fill="#058288"/>
<path d="M53.1217 92.546C52.0392 92.546 50.9557 92.523 49.8741 92.5507C48.1728 92.5949 46.9077 91.1813 46.8985 89.7308C46.8874 88.0802 48.0871 86.7809 49.7874 86.7505C51.9977 86.7108 54.2098 86.7163 56.4201 86.7495C57.9812 86.7726 59.131 87.8496 59.3237 89.3684C59.4943 90.7212 58.5612 92.0813 57.1882 92.4455C56.9032 92.5212 56.5971 92.5156 56.3011 92.546C56.2559 92.5507 56.2089 92.546 56.1628 92.546C55.1494 92.546 54.136 92.546 53.1226 92.546H53.1217Z" fill="#058288"/>
<path d="M33.2084 79.2625C32.0567 79.2625 30.905 79.2865 29.7542 79.257C28.3776 79.2219 27.2231 78.1919 27.0156 76.8696C26.7925 75.4467 27.5799 74.0976 28.9216 73.6449C29.2231 73.5434 29.5505 73.4724 29.8667 73.4697C32.0779 73.4549 34.2891 73.4402 36.4994 73.4697C37.9369 73.489 39.0397 74.4102 39.3376 75.7473C39.7304 77.5068 38.4616 79.1952 36.6635 79.256C35.5136 79.2948 34.361 79.2634 33.2093 79.2634L33.2084 79.2625Z" fill="#058288"/>
<path d="M59.783 12.87C58.6313 12.87 57.4796 12.8903 56.3288 12.8644C55.0665 12.8368 54.0337 12.0262 53.6621 10.8275C53.3043 9.67387 53.7073 8.41332 54.6718 7.67746C55.2029 7.27172 55.8115 7.07347 56.4736 7.0707C58.6617 7.0624 60.8498 7.04488 63.037 7.07531C64.6277 7.09744 65.8024 8.20123 65.9684 9.74211C66.1113 11.0737 65.192 12.4006 63.8476 12.7649C63.5414 12.8478 63.2122 12.8654 62.8923 12.8691C61.8558 12.882 60.8194 12.8737 59.783 12.8737V12.87V12.87Z" fill="#058288"/>
<path d="M59.7599 26.1515C58.6774 26.1515 57.5939 26.1285 56.5123 26.1571C54.812 26.2013 53.5459 24.7877 53.5367 23.3363C53.5256 21.6856 54.7262 20.3864 56.4256 20.3559C58.6359 20.3163 60.848 20.3218 63.0582 20.355C64.6184 20.3781 65.7692 21.456 65.961 22.9739C66.1316 24.3266 65.1975 25.6868 63.8254 26.051C63.5405 26.1266 63.2344 26.1441 62.9384 26.1478C61.8789 26.1589 60.8194 26.1524 59.7599 26.1524V26.1515Z" fill="#058288"/>
<path d="M92.9703 79.2624C91.8186 79.2624 90.6669 79.2846 89.5162 79.2569C88.1367 79.2228 86.9813 78.2011 86.7683 76.8787C86.5387 75.4587 87.3197 74.1013 88.6641 73.6513C89.0284 73.5296 89.4295 73.4705 89.8149 73.4678C91.9108 73.4502 94.0068 73.4493 96.1027 73.4632C97.6665 73.4733 98.8016 74.3751 99.1013 75.8044C99.4628 77.5316 98.1949 79.1924 96.4263 79.2551C95.2765 79.2956 94.1239 79.2624 92.9722 79.2624H92.9703Z" fill="#058288"/>
<path d="M112.896 79.2636C111.745 79.2636 110.593 79.2839 109.442 79.258C108.18 79.2304 107.147 78.4207 106.775 77.222C106.416 76.0684 106.818 74.8088 107.782 74.0711C108.314 73.6653 108.922 73.4661 109.583 73.4634C111.771 73.4551 113.96 73.4385 116.147 73.468C117.737 73.4901 118.913 74.5921 119.079 76.1339C119.223 77.4654 118.304 78.7924 116.96 79.1575C116.654 79.2405 116.325 79.258 116.005 79.2627C114.968 79.2756 113.932 79.2673 112.895 79.2673V79.2636H112.896Z" fill="#058288"/>
<path d="M106.258 26.1489C105.107 26.1489 103.955 26.1692 102.804 26.1434C101.541 26.1157 100.508 25.307 100.136 24.1082C99.7769 22.9546 100.178 21.695 101.143 20.9573C101.674 20.5516 102.282 20.3524 102.943 20.3496C105.131 20.3413 107.32 20.3247 109.507 20.3542C111.098 20.3763 112.273 21.4774 112.44 23.0192C112.584 24.3498 111.666 25.6786 110.322 26.0438C110.016 26.1268 109.687 26.1452 109.367 26.1489C108.33 26.1618 107.294 26.1535 106.257 26.1535V26.1498L106.258 26.1489Z" fill="#058288"/>
<path d="M19.8804 85.9027C18.7517 85.9027 17.6231 85.923 16.4945 85.8972C15.2321 85.8686 14.1994 85.0599 13.8268 83.8611C13.4681 82.7076 13.8702 81.4479 14.8347 80.7102C15.3658 80.3045 15.9744 80.1053 16.6355 80.1025C18.8237 80.0942 21.0118 80.0776 23.199 80.1071C24.7896 80.1293 25.9653 81.2312 26.1313 82.773C26.2751 84.1046 25.3567 85.4315 24.0123 85.7967C23.7062 85.8797 23.377 85.8981 23.057 85.9018C21.9975 85.9138 20.938 85.9064 19.8785 85.9064V85.9027H19.8804Z" fill="#058288"/>
<path d="M39.8393 85.9054C38.7567 85.9054 37.6733 85.8833 36.5916 85.91C34.8978 85.9534 33.628 84.5425 33.6207 83.0855C33.6114 81.4349 34.8129 80.1384 36.5142 80.1089C38.7244 80.0702 40.9366 80.0748 43.1468 80.1089C44.7061 80.1329 45.8568 81.2136 46.0459 82.7323C46.2146 84.0851 45.2778 85.4453 43.9057 85.8067C43.6208 85.8814 43.3146 85.8989 43.0177 85.9017C41.9582 85.9128 40.8987 85.9063 39.8393 85.9063V85.9054Z" fill="#058288"/>
<path d="M106.225 32.7911C105.143 32.7911 104.06 32.769 102.978 32.7957C101.29 32.8382 100.017 31.431 100.01 29.9676C100.003 28.3179 101.205 27.0241 102.908 26.9946C105.118 26.9568 107.33 26.9596 109.54 26.9946C111.098 27.0195 112.249 28.103 112.436 29.6218C112.602 30.9755 111.664 32.3337 110.291 32.6934C110.006 32.7681 109.7 32.7847 109.403 32.7874C108.343 32.7985 107.284 32.792 106.224 32.7911H106.225Z" fill="#058288"/>
<path d="M159.249 85.9058C158.189 85.9058 157.13 85.8864 156.07 85.9094C154.415 85.9463 153.122 84.5558 153.123 83.061C153.125 81.4417 154.306 80.1471 155.972 80.1129C158.229 80.0668 160.487 80.065 162.743 80.1166C164.285 80.1517 165.431 81.3154 165.559 82.8249C165.674 84.1629 164.73 85.4733 163.385 85.8135C163.099 85.8855 162.793 85.8772 162.496 85.9039C162.45 85.9085 162.404 85.9039 162.358 85.9039C161.321 85.9039 160.285 85.9039 159.249 85.9039V85.9058Z" fill="#058288"/>
<path d="M33.1587 92.5424C32.0301 92.5424 30.9014 92.5627 29.7728 92.5369C28.5104 92.5083 27.4777 91.6996 27.1052 90.5008C26.7465 89.3472 27.1485 88.0876 28.113 87.3499C28.6441 86.9441 29.2527 86.745 29.9139 86.7422C32.102 86.7339 34.2901 86.7173 36.4773 86.7468C38.0679 86.7689 39.2436 87.8709 39.4096 89.4127C39.5534 90.7442 38.635 92.0712 37.2906 92.4363C36.9845 92.5193 36.6553 92.5378 36.3353 92.5415C35.2758 92.5535 34.2163 92.5461 33.1569 92.5461V92.5424H33.1587Z" fill="#058288"/>
<path d="M159.318 105.821C158.189 105.821 157.061 105.839 155.932 105.816C154.664 105.79 153.63 104.991 153.253 103.795C152.889 102.641 153.283 101.385 154.244 100.639C154.732 100.259 155.295 100.037 155.903 100.032C158.184 100.013 160.464 99.9858 162.743 100.037C164.285 100.071 165.43 101.235 165.559 102.745C165.674 104.083 164.73 105.393 163.385 105.733C163.099 105.805 162.793 105.818 162.496 105.821C161.437 105.831 160.377 105.825 159.318 105.825V105.822V105.821Z" fill="#058288"/>
<path d="M19.9513 99.1816C18.7996 99.1816 17.6479 99.2019 16.4971 99.1761C15.2339 99.1484 14.2011 98.3406 13.8286 97.1418C13.4699 95.9873 13.8701 94.7286 14.8346 93.9909C15.3657 93.5852 15.9743 93.3851 16.6354 93.3823C18.8236 93.374 21.0117 93.3574 23.1989 93.3869C24.7904 93.4091 25.9652 94.5092 26.133 96.051C26.2778 97.3816 25.3603 98.7104 24.0159 99.0756C23.7107 99.1586 23.3806 99.177 23.0606 99.1807C22.0242 99.1936 20.9877 99.1853 19.9513 99.1853V99.1816V99.1816Z" fill="#058288"/>
<path d="M119.449 99.1809C118.32 99.1809 117.192 99.2048 116.064 99.1753C114.687 99.1394 113.532 98.1121 113.324 96.7888C113.099 95.366 113.886 94.0169 115.228 93.5632C115.529 93.4618 115.857 93.3899 116.173 93.388C118.384 93.3733 120.595 93.3576 122.805 93.388C124.273 93.4083 125.372 94.3471 125.658 95.7312C126.016 97.4574 124.744 99.1145 122.972 99.1735C121.799 99.2131 120.624 99.1809 119.449 99.1809V99.1809Z" fill="#058288"/>
<path d="M26.5748 105.82C25.4231 105.82 24.2714 105.843 23.1206 105.815C21.743 105.78 20.5876 104.754 20.3774 103.432C20.1515 102.01 20.9362 100.66 22.2778 100.204C22.5784 100.102 22.9067 100.029 23.2221 100.027C25.4563 100.013 27.6905 99.9914 29.9238 100.031C31.3512 100.057 32.4282 101.009 32.7113 102.367C33.0709 104.093 31.8003 105.752 30.0299 105.812C28.88 105.852 27.7274 105.819 26.5757 105.819L26.5748 105.82Z" fill="#058288"/>
<path d="M86.2732 112.46C85.1445 112.46 84.0159 112.481 82.8873 112.455C81.624 112.426 80.5912 111.619 80.2187 110.421C79.86 109.266 80.2602 108.007 81.2247 107.27C81.7558 106.864 82.3644 106.664 83.0256 106.661C85.2137 106.653 87.4018 106.636 89.589 106.666C91.1806 106.688 92.3553 107.788 92.5231 109.33C92.6679 110.66 91.7495 111.989 90.406 112.354C90.1008 112.437 89.7707 112.456 89.4507 112.459C88.3912 112.472 87.3317 112.464 86.2723 112.464V112.46H86.2732Z" fill="#058288"/>
<path d="M59.7414 125.742C58.6589 125.742 57.5763 125.721 56.4938 125.746C54.8248 125.786 53.5394 124.389 53.5366 122.908C53.5339 121.26 54.7409 119.973 56.4449 119.945C58.6552 119.909 60.8673 119.91 63.0775 119.947C64.6331 119.973 65.7839 121.066 65.9646 122.584C66.126 123.937 65.1808 125.295 63.8088 125.648C63.5238 125.722 63.2177 125.735 62.9199 125.738C61.8604 125.748 60.8009 125.742 59.7414 125.742V125.742Z" fill="#058288"/>
<path d="M139.444 132.377C138.293 132.377 137.141 132.399 135.99 132.372C134.611 132.338 133.455 131.317 133.241 129.995C133.012 128.575 133.792 127.218 135.136 126.767C135.501 126.645 135.902 126.585 136.286 126.583C138.382 126.565 140.478 126.564 142.574 126.578C144.138 126.588 145.274 127.489 145.574 128.918C145.936 130.645 144.668 132.307 142.9 132.37C141.75 132.41 140.597 132.377 139.445 132.377H139.444Z" fill="#058288"/>
<path d="M106.192 145.657C105.064 145.657 103.935 145.676 102.806 145.651C101.543 145.624 100.509 144.817 100.136 143.618C99.7763 142.464 100.176 141.205 101.14 140.466C101.67 140.06 102.279 139.86 102.94 139.857C105.128 139.848 107.316 139.832 109.503 139.861C111.095 139.883 112.271 140.982 112.439 142.524C112.585 143.854 111.668 145.183 110.324 145.549C110.019 145.632 109.689 145.651 109.37 145.655C108.31 145.668 107.251 145.66 106.191 145.66V145.656L106.192 145.657Z" fill="#058288"/>
<path d="M99.6082 59.3448C98.4565 59.3448 97.3048 59.3678 96.154 59.3392C94.7755 59.3051 93.6201 58.2834 93.4062 56.9611C93.1775 55.541 93.9594 54.1854 95.3029 53.7327C95.646 53.6174 96.0231 53.5529 96.3846 53.5501C98.5266 53.5335 100.669 53.527 102.811 53.5473C104.322 53.5621 105.445 54.4824 105.739 55.8868C106.101 57.613 104.832 59.2747 103.063 59.3365C101.913 59.377 100.761 59.3438 99.6091 59.3438L99.6082 59.3448Z" fill="#058288"/>
<path d="M159.349 145.659C158.267 145.659 157.183 145.636 156.102 145.665C154.396 145.71 153.134 144.293 153.124 142.847C153.112 141.196 154.312 139.894 156.011 139.865C158.245 139.825 160.48 139.828 162.713 139.868C164.082 139.892 165.162 140.808 165.467 142.074C165.772 143.34 165.23 144.62 164.115 145.274C163.645 145.549 163.139 145.666 162.597 145.662C161.514 145.656 160.432 145.66 159.349 145.66V145.659Z" fill="#058288"/>
<path d="M26.547 65.9886C25.4645 65.9886 24.3819 65.9673 23.2994 65.9932C21.6276 66.0328 20.3441 64.6339 20.3413 63.1558C20.3376 61.5079 21.5446 60.2197 23.2478 60.192C25.458 60.1561 27.6701 60.157 29.8804 60.193C31.4369 60.2188 32.5867 61.3106 32.7684 62.8284C32.9297 64.1821 31.9855 65.5395 30.6134 65.8936C30.3285 65.9673 30.0215 65.96 29.7255 65.9876C29.6794 65.9922 29.6333 65.9876 29.5872 65.9876C28.5738 65.9876 27.5604 65.9876 26.547 65.9876V65.9886Z" fill="#058288"/>
<path d="M132.806 65.9841C131.655 65.9841 130.503 66.0062 129.352 65.9786C127.973 65.9445 126.817 64.9246 126.603 63.6023C126.372 62.1822 127.153 60.8248 128.497 60.3739C128.862 60.2522 129.263 60.1922 129.647 60.1894C131.743 60.1719 133.839 60.171 135.935 60.1848C137.499 60.195 138.635 61.0959 138.935 62.5243C139.297 64.2514 138.03 65.914 136.262 65.9758C135.112 66.0164 133.959 65.9832 132.807 65.9832L132.806 65.9841Z" fill="#058288"/>
<path d="M46.4328 72.6232C45.3041 72.6232 44.1755 72.6453 43.0478 72.6177C41.6674 72.5835 40.512 71.5674 40.2944 70.245C40.0611 68.8259 40.8412 67.4694 42.1847 67.013C42.5277 66.8968 42.9039 66.8313 43.2654 66.8276C45.4074 66.811 47.5495 66.8046 49.6915 66.8239C51.2056 66.8377 52.3296 67.7543 52.6256 69.1578C52.9898 70.885 51.7238 72.5503 49.957 72.6131C48.7841 72.6545 47.6085 72.6213 46.4337 72.6213V72.6232H46.4328Z" fill="#058288"/>
<path d="M79.6339 72.6244C78.5053 72.6244 77.3766 72.6447 76.248 72.6189C74.9847 72.5903 73.952 71.7834 73.5794 70.5837C73.2207 69.4302 73.6218 68.1705 74.5854 67.4328C75.1166 67.0271 75.7251 66.827 76.3863 66.8242C78.5744 66.8159 80.7625 66.7993 82.9498 66.8288C84.5413 66.851 85.716 67.952 85.8839 69.4929C86.0286 70.8235 85.1102 72.1523 83.7667 72.5174C83.4615 72.6004 83.1314 72.6189 82.8114 72.6226C81.752 72.6355 80.6925 72.6272 79.633 72.6272V72.6235L79.6339 72.6244Z" fill="#058288"/>
<path d="M99.5514 72.624C98.4227 72.624 97.2941 72.6443 96.1654 72.6185C94.9022 72.5899 93.8694 71.783 93.4969 70.5833C93.1382 69.4297 93.5393 68.1701 94.5038 67.4324C95.0349 67.0267 95.6435 66.8266 96.3047 66.8247C98.4928 66.8164 100.681 66.7998 102.868 66.8293C104.46 66.8514 105.634 67.9525 105.802 69.4934C105.947 70.824 105.029 72.1528 103.684 72.5179C103.379 72.6009 103.048 72.5936 102.729 72.6277C102.706 72.6304 102.683 72.6277 102.66 72.6277H99.5504V72.624H99.5514Z" fill="#058288"/>
<path d="M63.0452 6.23154C61.4315 6.22048 60.1692 4.93503 60.1802 3.31485C60.1913 1.71587 61.509 0.412903 63.0968 0.431346C64.6801 0.449788 65.9996 1.79241 65.9802 3.36649C65.9609 4.96454 64.6515 6.24261 63.0452 6.23154V6.23154Z" fill="#058288"/>
<path d="M96.301 6.2317C94.6771 6.24461 93.389 4.9859 93.3761 3.37494C93.3632 1.76674 94.6347 0.456398 96.2327 0.4315C97.8049 0.406603 99.1512 1.72156 99.176 3.3067C99.2009 4.89369 97.898 6.21879 96.301 6.2317V6.2317Z" fill="#058288"/>
<path d="M109.519 6.23154C107.905 6.22048 106.643 4.93595 106.654 3.31485C106.665 1.71587 107.983 0.412903 109.57 0.431346C111.153 0.448866 112.472 1.79241 112.453 3.36649C112.434 4.96454 111.124 6.24261 109.518 6.23154H109.519Z" fill="#058288"/>
<path d="M76.2629 26.148C74.6584 26.112 73.4228 24.8007 73.4588 23.1723C73.4929 21.6102 74.8041 20.3376 76.3661 20.3487C77.9484 20.3607 79.2707 21.6987 79.2578 23.2755C79.2449 24.8994 77.9042 26.1849 76.2619 26.148H76.2629Z" fill="#058288"/>
<path d="M89.6525 26.1499C88.0306 26.1592 86.7461 24.8968 86.7369 23.284C86.7276 21.6767 88.0066 20.3682 89.6027 20.3488C91.1767 20.3304 92.5184 21.6499 92.5368 23.2342C92.5553 24.823 91.2514 26.1407 89.6525 26.1499V26.1499Z" fill="#058288"/>
<path d="M69.699 32.789C68.0817 32.7835 66.8147 31.5063 66.8193 29.8871C66.8249 28.2853 68.1306 26.9814 69.7212 26.9888C71.3016 26.9962 72.6276 28.3323 72.6193 29.9092C72.611 31.5054 71.3035 32.7945 69.699 32.789V32.789Z" fill="#058288"/>
<path d="M82.9719 32.789C81.3554 32.7817 80.0903 31.5018 80.0977 29.8816C80.1051 28.2808 81.4154 26.9769 83.0041 26.9889C84.5864 26.9999 85.9087 28.3379 85.8967 29.9148C85.8847 31.511 84.5763 32.7964 82.9709 32.789H82.9719Z" fill="#058288"/>
<path d="M56.4387 39.4286C54.8186 39.4305 53.5434 38.1607 53.5415 36.5442C53.5397 34.9388 54.8315 33.633 56.4258 33.6284C58.0035 33.6229 59.3369 34.9508 59.3415 36.5313C59.3461 38.1238 58.0404 39.4268 56.4387 39.4286Z" fill="#058288"/>
<path d="M69.6816 39.4283C68.0679 39.4164 66.8065 38.13 66.8194 36.5098C66.8314 34.9108 68.1509 33.6088 69.7379 33.6281C71.3211 33.6475 72.6397 34.992 72.6194 36.5661C72.5982 38.1641 71.2879 39.4412 69.6816 39.4283V39.4283Z" fill="#058288"/>
<path d="M56.4286 46.0678C54.8094 46.065 53.5387 44.7925 53.5415 43.1741C53.5434 41.5715 54.8426 40.2657 56.435 40.2676C58.0155 40.2694 59.3433 41.601 59.3406 43.1806C59.3378 44.775 58.0312 46.0705 56.4286 46.0678Z" fill="#058288"/>
<path d="M69.736 46.068C68.114 46.0772 66.8286 44.8157 66.8194 43.2039C66.8102 41.5966 68.0873 40.2872 69.6834 40.2678C71.2574 40.2484 72.5991 41.5671 72.6184 43.1513C72.6378 44.7392 71.334 46.0588 69.736 46.068Z" fill="#058288"/>
<path d="M82.9866 46.0678C81.3674 46.0659 80.0958 44.7934 80.0977 43.1751C80.0995 41.5715 81.3978 40.2667 82.9903 40.2676C84.5698 40.2676 85.8995 41.5991 85.8976 43.1787C85.8958 44.7731 84.5901 46.0696 82.9866 46.0678V46.0678Z" fill="#058288"/>
<path d="M96.2428 46.0679C94.6282 46.0569 93.3659 44.7733 93.376 43.1531C93.3862 41.5541 94.7029 40.2511 96.2908 40.2677C97.8731 40.2843 99.1935 41.627 99.176 43.201C99.1585 44.7982 97.8482 46.079 96.2428 46.0679V46.0679Z" fill="#058288"/>
<path d="M109.568 46.0679C107.946 46.0762 106.662 44.8138 106.654 43.2001C106.646 41.5937 107.925 40.2843 109.522 40.2668C111.096 40.2493 112.436 41.5697 112.454 43.153C112.47 44.7419 111.167 46.0587 109.569 46.067L109.568 46.0679Z" fill="#058288"/>
<path d="M82.981 52.7069C81.3628 52.7032 80.094 51.4279 80.0977 49.8086C80.1014 48.206 81.4033 46.9021 82.9949 46.9058C84.5754 46.9104 85.9022 48.2447 85.8967 49.8225C85.8912 51.4177 84.5846 52.7097 82.9801 52.706L82.981 52.7069Z" fill="#058288"/>
<path d="M109.57 52.7071C107.948 52.7164 106.663 51.4549 106.654 49.843C106.645 48.2357 107.922 46.9263 109.518 46.9069C111.092 46.8876 112.434 48.2062 112.453 49.7905C112.472 51.3784 111.168 52.6979 109.57 52.7071V52.7071Z" fill="#058288"/>
<path d="M82.9875 59.3466C81.3674 59.3457 80.0967 58.0731 80.0977 56.4548C80.0986 54.8512 81.396 53.5464 82.9893 53.5464C84.5689 53.5464 85.8985 54.877 85.8976 56.4566C85.8976 58.051 84.591 59.3475 82.9875 59.3466Z" fill="#058288"/>
<path d="M116.216 59.3464C114.593 59.3584 113.305 58.0997 113.292 56.4887C113.28 54.8805 114.552 53.5711 116.15 53.5462C117.722 53.5222 119.067 54.8381 119.091 56.4233C119.115 58.0103 117.812 59.3344 116.215 59.3464H116.216Z" fill="#058288"/>
<path d="M136.102 99.1825C134.482 99.1825 133.21 97.9109 133.21 96.2935C133.21 94.689 134.506 93.3842 136.099 93.3823C137.679 93.3805 139.01 94.7102 139.01 96.2907C139.01 97.8842 137.705 99.1834 136.102 99.1825Z" fill="#058288"/>
<path d="M102.907 85.9037C101.287 85.9037 100.015 84.6312 100.015 83.0138C100.015 81.4102 101.312 80.1044 102.905 80.1035C104.485 80.1026 105.814 81.4323 105.815 83.0128C105.815 84.6063 104.509 85.9046 102.907 85.9046V85.9037Z" fill="#058288"/>
<path d="M3.31027 105.822C1.69199 105.817 0.424113 104.541 0.428723 102.923C0.433334 101.321 1.73718 100.016 3.32779 100.022C4.90826 100.027 6.23515 101.362 6.2287 102.94C6.22224 104.535 4.91471 105.826 3.31119 105.822H3.31027Z" fill="#058288"/>
<path d="M16.5747 92.543C14.9602 92.5329 13.6969 91.2502 13.7061 89.63C13.7162 88.031 15.0312 86.7271 16.619 86.7428C18.2013 86.7585 19.5227 88.1002 19.5061 89.6743C19.4895 91.2714 18.1801 92.5522 16.5747 92.543Z" fill="#058288"/>
<path d="M76.3456 85.9037C74.7264 85.901 73.4557 84.6284 73.4585 83.0101C73.4603 81.4074 74.7596 80.1017 76.352 80.1035C77.9325 80.1054 79.2603 81.4369 79.2575 83.0165C79.2548 84.6109 77.9482 85.9065 76.3456 85.9037Z" fill="#058288"/>
<path d="M83.0171 105.822C81.3942 105.833 80.1079 104.572 80.0977 102.961C80.0876 101.353 81.3628 100.044 82.9599 100.022C84.533 100.001 85.8765 101.318 85.8977 102.902C85.9189 104.49 84.6151 105.812 83.018 105.822H83.0171Z" fill="#058288"/>
<path d="M96.2953 105.822C94.6725 105.833 93.3861 104.572 93.3751 102.961C93.364 101.353 94.6393 100.044 96.2363 100.022C97.8094 100.001 99.1529 101.317 99.1741 102.902C99.1953 104.49 97.8924 105.812 96.2944 105.823L96.2953 105.822Z" fill="#058288"/>
<path d="M116.193 105.822C114.572 105.824 113.296 104.557 113.292 102.941C113.289 101.336 114.578 100.029 116.173 100.022C117.75 100.014 119.085 101.339 119.092 102.922C119.099 104.513 117.794 105.819 116.193 105.822Z" fill="#058288"/>
<path d="M136.11 72.6249C134.49 72.6277 133.213 71.3589 133.21 69.7433C133.208 68.1379 134.498 66.8321 136.092 66.8247C137.67 66.8174 139.004 68.1434 139.01 69.7258C139.017 71.3174 137.711 72.6231 136.11 72.6259V72.6249Z" fill="#058288"/>
<path d="M3.32409 112.461C1.70397 112.461 0.429633 111.192 0.428711 109.575C0.428711 107.971 1.72056 106.665 3.31487 106.661C4.89349 106.657 6.225 107.985 6.22868 109.566C6.23145 111.158 4.92576 112.46 3.32409 112.461V112.461Z" fill="#058288"/>
<path d="M63.0424 85.9039C61.4288 85.8919 60.1683 84.6056 60.1803 82.9854C60.1922 81.3873 61.5118 80.0844 63.0987 80.1037C64.6819 80.1231 66.0005 81.4676 65.9802 83.0416C65.959 84.6397 64.6487 85.9168 63.0424 85.9039Z" fill="#058288"/>
<path d="M56.4674 112.461C54.8436 112.475 53.5545 111.216 53.5416 109.605C53.5287 107.996 54.7984 106.687 56.3973 106.661C57.9695 106.635 59.3158 107.95 59.3416 109.535C59.3674 111.122 58.0645 112.448 56.4683 112.461H56.4674Z" fill="#058288"/>
<path d="M69.6862 112.461C68.0716 112.45 66.8093 111.166 66.8194 109.546C66.8295 107.947 68.1454 106.644 69.7341 106.661C71.3164 106.677 72.6369 108.02 72.6194 109.594C72.6018 111.191 71.2925 112.472 69.6862 112.461Z" fill="#058288"/>
<path d="M3.30383 99.1826C1.68648 99.1752 0.421366 97.8962 0.428743 96.2769C0.435198 94.6761 1.74457 93.3722 3.33426 93.3824C4.91565 93.3925 6.23978 94.7305 6.22872 96.3074C6.21765 97.9036 4.9092 99.19 3.30383 99.1826Z" fill="#058288"/>
<path d="M9.9771 79.2647C8.35422 79.2711 7.07435 78.0069 7.0679 76.3931C7.06144 74.7868 8.34407 73.4792 9.9393 73.4645C11.5142 73.4506 12.8531 74.772 12.8669 76.3553C12.8808 77.9451 11.576 79.2582 9.9771 79.2647V79.2647Z" fill="#058288"/>
<path d="M162.638 112.461C161.023 112.452 159.758 111.171 159.767 109.551C159.775 107.951 161.088 106.647 162.677 106.661C164.259 106.675 165.581 108.014 165.567 109.589C165.552 111.187 164.243 112.469 162.638 112.461V112.461Z" fill="#058288"/>
<path d="M56.4683 119.1C54.8445 119.114 53.5545 117.856 53.5416 116.246C53.5278 114.637 54.7975 113.328 56.3955 113.3C57.9677 113.273 59.3139 114.587 59.3407 116.174C59.3674 117.76 58.0645 119.087 56.4683 119.1V119.1Z" fill="#058288"/>
<path d="M69.7415 119.1C68.1186 119.112 66.8304 117.853 66.8184 116.242C66.8065 114.633 68.0799 113.324 69.6769 113.3C71.2491 113.277 72.5944 114.593 72.6175 116.178C72.6405 117.765 71.3376 119.089 69.7406 119.1H69.7415Z" fill="#058288"/>
<path d="M96.2447 119.101C94.6292 119.09 93.3659 117.809 93.376 116.189C93.3853 114.589 94.7002 113.286 96.288 113.3C97.8703 113.315 99.1917 114.657 99.176 116.231C99.1603 117.828 97.851 119.11 96.2456 119.101H96.2447Z" fill="#058288"/>
<path d="M109.531 119.101C107.913 119.094 106.647 117.816 106.654 116.196C106.66 114.595 107.968 113.291 109.558 113.3C111.14 113.31 112.464 114.647 112.454 116.223C112.444 117.82 111.136 119.107 109.531 119.101Z" fill="#058288"/>
<path d="M136.082 119.101C134.465 119.092 133.201 117.811 133.21 116.191C133.219 114.591 134.531 113.287 136.12 113.3C137.702 113.313 139.024 114.653 139.01 116.229C138.997 117.826 137.687 119.11 136.083 119.101H136.082Z" fill="#058288"/>
<path d="M162.677 119.101C161.054 119.107 159.773 117.844 159.767 116.229C159.76 114.623 161.042 113.314 162.638 113.299C164.213 113.285 165.553 114.607 165.567 116.189C165.58 117.779 164.277 119.093 162.678 119.1L162.677 119.101Z" fill="#058288"/>
<path d="M149.349 72.6252C147.735 72.6123 146.475 71.325 146.488 69.7039C146.501 68.1058 147.822 66.8038 149.409 66.825C150.992 66.8462 152.31 68.1916 152.287 69.7647C152.265 71.3628 150.954 72.639 149.348 72.6252H149.349Z" fill="#058288"/>
<path d="M69.6908 92.543C68.0753 92.5338 66.8111 91.2529 66.8194 89.6327C66.8277 88.0328 68.1407 86.729 69.7295 86.7428C71.3118 86.7566 72.6341 88.0965 72.6193 89.6715C72.6046 91.2686 71.2961 92.5513 69.6908 92.543Z" fill="#058288"/>
<path d="M63.0388 72.6252C61.426 72.6114 60.1665 71.3232 60.1803 69.7021C60.1941 68.104 61.5164 66.802 63.1024 66.825C64.6866 66.8471 66.0033 68.1935 65.9793 69.7666C65.9554 71.3656 64.6451 72.639 63.0379 72.6252H63.0388Z" fill="#058288"/>
<path d="M3.31763 72.6249C1.69844 72.6231 0.426869 71.3505 0.428713 69.7322C0.430557 68.1286 1.72887 66.8238 3.32132 66.8247C4.90087 66.8247 6.23053 68.1563 6.22869 69.7359C6.22684 71.3302 4.92116 72.6268 3.31763 72.6249V72.6249Z" fill="#058288"/>
<path d="M122.849 125.74C121.227 125.749 119.941 124.488 119.932 122.876C119.923 121.268 121.2 119.959 122.796 119.94C124.37 119.92 125.712 121.239 125.731 122.823C125.751 124.411 124.447 125.731 122.849 125.74V125.74Z" fill="#058288"/>
<path d="M136.102 125.74C134.482 125.74 133.21 124.467 133.21 122.85C133.21 121.246 134.507 119.94 136.1 119.939C137.68 119.939 139.01 121.268 139.01 122.848C139.01 124.441 137.705 125.74 136.102 125.74Z" fill="#058288"/>
<path d="M162.639 65.9858C161.023 65.9775 159.758 64.6967 159.767 63.0765C159.775 61.4766 161.086 60.1727 162.675 60.1856C164.257 60.1986 165.58 61.5375 165.566 63.1134C165.552 64.7105 164.243 65.9941 162.638 65.9858H162.639Z" fill="#058288"/>
<path d="M63.0484 65.9859C61.4338 65.9758 60.1706 64.6922 60.1807 63.072C60.1909 61.473 61.5058 60.1691 63.0936 60.1857C64.6759 60.2014 65.9973 61.5431 65.9798 63.1181C65.9632 64.7152 64.6538 65.996 63.0475 65.9859H63.0484Z" fill="#058288"/>
<path d="M76.3235 132.379C74.7098 132.368 73.4475 131.082 73.4586 129.462C73.4696 127.863 74.7873 126.56 76.3752 126.579C77.9584 126.597 79.2779 127.94 79.2585 129.514C79.2392 131.112 77.9298 132.39 76.3235 132.379V132.379Z" fill="#058288"/>
<path d="M109.578 132.379C107.955 132.392 106.666 131.132 106.654 129.521C106.642 127.913 107.913 126.604 109.511 126.579C111.084 126.555 112.429 127.87 112.454 129.455C112.478 131.042 111.176 132.366 109.578 132.379Z" fill="#058288"/>
<path d="M3.33517 92.543C1.71321 92.5485 0.434261 91.2824 0.428729 89.6678C0.423196 88.0614 1.7086 86.7547 3.30382 86.7428C4.87968 86.7308 6.21671 88.054 6.2287 89.6364C6.23977 91.2271 4.935 92.5374 3.33517 92.543Z" fill="#058288"/>
<path d="M49.794 65.9857C48.1739 65.9857 46.9014 64.7132 46.9023 63.0958C46.9023 61.4922 48.1988 60.1865 49.7922 60.1855C51.3717 60.1837 52.7014 61.5134 52.7023 63.0939C52.7023 64.6874 51.3966 65.9867 49.794 65.9857Z" fill="#058288"/>
<path d="M9.94851 65.9858C8.33115 65.9802 7.06327 64.704 7.06788 63.0847C7.07249 61.483 8.37818 60.1791 9.96879 60.1856C11.5493 60.192 12.8752 61.5282 12.8679 63.105C12.8605 64.7012 11.5529 65.9904 9.94851 65.9858V65.9858Z" fill="#058288"/>
<path d="M96.2548 139.018C94.6374 139.013 93.3705 137.736 93.376 136.116C93.3815 134.514 94.6881 133.21 96.2778 133.218C97.8583 133.226 99.1843 134.563 99.175 136.14C99.1658 137.736 97.8592 139.024 96.2538 139.018H96.2548Z" fill="#058288"/>
<path d="M156.006 59.3466C154.389 59.341 153.122 58.0639 153.127 56.4437C153.133 54.842 154.44 53.5381 156.029 53.5454C157.61 53.5528 158.936 54.8899 158.927 56.4667C158.917 58.063 157.611 59.3512 156.005 59.3456L156.006 59.3466Z" fill="#058288"/>
<path d="M56.4065 145.658C54.7929 145.646 53.5305 144.361 53.5416 142.741C53.5526 141.142 54.8703 139.839 56.4582 139.858C58.0414 139.876 59.3609 141.219 59.3415 142.793C59.3222 144.391 58.0119 145.669 56.4065 145.658V145.658Z" fill="#058288"/>
<path d="M69.711 145.658C68.0909 145.658 66.8184 144.386 66.8193 142.769C66.8193 141.164 68.1149 139.859 69.7083 139.857C71.2878 139.856 72.6184 141.185 72.6184 142.766C72.6184 144.359 71.3127 145.659 69.711 145.658Z" fill="#058288"/>
<path d="M82.9774 145.658C81.36 145.652 80.0921 144.375 80.0977 142.756C80.1032 141.154 81.4089 139.85 82.9995 139.857C84.58 139.865 85.9059 141.201 85.8976 142.778C85.8893 144.374 84.5818 145.663 82.9774 145.658Z" fill="#058288"/>
<path d="M89.6046 99.1827C87.99 99.1725 86.7267 97.8889 86.7369 96.2687C86.747 94.6698 88.0619 93.3659 89.6498 93.3825C91.2321 93.3982 92.5534 94.7399 92.5359 96.3149C92.5193 97.912 91.21 99.1928 89.6037 99.1827H89.6046Z" fill="#058288"/>
<path d="M122.817 145.658C121.198 145.655 119.928 144.38 119.931 142.762C119.934 141.159 121.235 139.855 122.827 139.857C124.407 139.86 125.735 141.193 125.731 142.772C125.727 144.368 124.421 145.661 122.817 145.659V145.658Z" fill="#058288"/>
<path d="M109.54 125.74C107.921 125.737 106.651 124.463 106.654 122.844C106.657 121.241 107.957 119.937 109.548 119.938C111.129 119.941 112.457 121.273 112.453 122.852C112.449 124.448 111.143 125.741 109.539 125.739L109.54 125.74Z" fill="#058288"/>
<path d="M82.9627 92.5431C81.349 92.532 80.0867 91.2475 80.0977 89.6273C80.1088 88.0283 81.4255 86.7253 83.0134 86.7429C84.5957 86.7604 85.9161 88.103 85.8977 89.6771C85.8793 91.2751 84.569 92.5541 82.9636 92.5431H82.9627Z" fill="#058288"/>
<path d="M56.4387 152.297C54.8186 152.299 53.5434 151.029 53.5415 149.413C53.5397 147.807 54.8315 146.502 56.4258 146.496C58.0035 146.491 59.3369 147.818 59.3415 149.399C59.3461 150.991 58.0404 152.294 56.4387 152.296V152.297Z" fill="#058288"/>
<path d="M69.7055 152.297C68.0863 152.294 66.8166 151.02 66.8193 149.402C66.8221 147.799 68.1223 146.494 69.7147 146.497C71.2952 146.5 72.623 147.832 72.6193 149.411C72.6156 151.006 71.309 152.3 69.7055 152.297V152.297Z" fill="#058288"/>
<path d="M83.017 152.297C81.3941 152.308 80.1078 151.048 80.0968 149.436C80.0857 147.828 81.3609 146.519 82.958 146.497C84.5311 146.476 85.8746 147.792 85.8958 149.378C85.917 150.965 84.6141 152.287 83.0161 152.298L83.017 152.297Z" fill="#058288"/>
<path d="M96.299 152.297C94.6762 152.309 93.388 151.05 93.3751 149.439C93.3631 147.831 94.6347 146.522 96.2327 146.497C97.8048 146.473 99.1502 147.789 99.1741 149.374C99.1981 150.961 97.8952 152.285 96.2981 152.297H96.299Z" fill="#058288"/>
<path d="M136.097 152.297C134.478 152.294 133.208 151.022 133.209 149.404C133.211 147.8 134.511 146.495 136.103 146.497C137.683 146.499 139.011 147.83 139.009 149.41C139.007 151.004 137.701 152.3 136.097 152.297V152.297Z" fill="#058288"/>
<path d="M149.347 152.297C147.734 152.283 146.475 150.995 146.488 149.374C146.502 147.776 147.825 146.474 149.411 146.497C150.995 146.519 152.311 147.865 152.287 149.438C152.263 151.037 150.953 152.311 149.346 152.297H149.347Z" fill="#058288"/>
<path d="M162.686 152.297C161.063 152.308 159.777 151.047 159.767 149.436C159.757 147.828 161.032 146.519 162.629 146.497C164.202 146.476 165.545 147.793 165.567 149.378C165.588 150.965 164.284 152.287 162.687 152.297H162.686Z" fill="#058288"/>
<path d="M56.4313 158.936C54.8112 158.935 53.5406 157.663 53.5415 156.045C53.5424 154.441 54.8398 153.136 56.4332 153.135C58.0127 153.135 59.3424 154.466 59.3415 156.045C59.3415 157.64 58.0349 158.937 56.4313 158.935V158.936Z" fill="#058288"/>
<path d="M69.6917 158.937C68.0753 158.928 66.8111 157.647 66.8194 156.027C66.8277 154.427 68.1389 153.123 69.7277 153.136C71.31 153.149 72.6323 154.488 72.6184 156.064C72.6046 157.661 71.2961 158.945 69.6908 158.937H69.6917Z" fill="#058288"/>
<path d="M83.0069 158.937C81.384 158.943 80.1041 157.679 80.0977 156.065C80.0912 154.459 81.3739 153.151 82.9691 153.136C84.544 153.123 85.8829 154.444 85.8967 156.027C85.9106 157.617 84.6058 158.93 83.0069 158.937V158.937Z" fill="#058288"/>
<path d="M96.276 158.936C94.6549 158.939 93.3787 157.671 93.376 156.056C93.3732 154.45 94.6623 153.144 96.2566 153.136C97.8343 153.129 99.1686 154.455 99.175 156.036C99.1815 157.628 97.8767 158.934 96.276 158.936Z" fill="#058288"/>
<path d="M139.85 56.3691C139.885 54.807 141.195 53.5345 142.758 53.5465C144.34 53.5585 145.662 54.8974 145.65 56.4733C145.636 58.0972 144.295 59.3817 142.654 59.3448C141.049 59.3089 139.814 57.9967 139.851 56.3682L139.85 56.3691Z" fill="#058288"/>
<path d="M156.007 158.936C154.39 158.931 153.122 157.654 153.127 156.035C153.133 154.433 154.439 153.129 156.029 153.136C157.61 153.144 158.936 154.48 158.927 156.057C158.919 157.653 157.612 158.942 156.007 158.936Z" fill="#058288"/>
<path d="M56.4129 165.576C54.7974 165.566 53.5332 164.286 53.5415 162.665C53.5498 161.066 54.8629 159.762 56.4517 159.775C58.034 159.789 59.3563 161.129 59.3415 162.704C59.3268 164.301 58.0183 165.584 56.4129 165.576V165.576Z" fill="#058288"/>
<path d="M129.455 59.3466C127.836 59.3429 126.568 58.0676 126.571 56.4483C126.575 54.8457 127.878 53.5418 129.469 53.5464C131.05 53.551 132.377 54.8853 132.371 56.4631C132.366 58.0584 131.059 59.3503 129.455 59.3466Z" fill="#058288"/>
<path d="M136.119 145.658C134.497 145.663 133.217 144.399 133.21 142.784C133.204 141.178 134.488 139.87 136.084 139.858C137.66 139.845 138.998 141.167 139.01 142.75C139.023 144.34 137.719 145.652 136.119 145.659V145.658Z" fill="#058288"/>
<path d="M23.2313 33.2059C21.9183 33.2059 20.6043 33.2152 19.2912 33.2041C15.9081 33.1737 13.3124 30.5723 13.293 27.178C13.2783 24.5739 13.3234 21.9689 13.281 19.3657C13.2322 16.4103 15.5706 13.3322 19.3355 13.2962C21.9395 13.2713 24.5435 13.2695 27.1475 13.2962C30.5353 13.3313 33.1503 15.9225 33.1973 19.3057C33.2333 21.932 33.2315 24.56 33.1983 27.1872C33.1503 30.9412 30.0733 33.2926 27.1032 33.2124C25.8141 33.1774 24.5223 33.2069 23.2323 33.2059H23.2313Z" fill="#058288"/>
<path d="M132.793 23.2755C132.793 21.9624 132.784 20.6484 132.795 19.3352C132.822 15.9842 135.379 13.3571 138.73 13.3018C141.402 13.2575 144.076 13.2575 146.75 13.3018C150.038 13.3571 152.622 15.9095 152.693 19.1988C152.752 21.8942 152.747 24.5914 152.696 27.2868C152.634 30.6406 150.005 33.1847 146.645 33.2032C144.041 33.2179 141.437 33.182 138.833 33.2124C135.531 33.2511 132.729 30.4829 132.79 27.1466C132.814 25.8566 132.794 24.5656 132.794 23.2755H132.793Z" fill="#058288"/>
<path d="M23.2709 152.714C21.9579 152.714 20.6439 152.696 19.3308 152.718C16.0288 152.771 13.2395 149.993 13.2837 146.656C13.3178 144.052 13.2782 141.448 13.2939 138.843C13.3142 135.492 15.8767 132.864 19.2275 132.809C21.8998 132.765 24.5738 132.765 27.247 132.809C30.5352 132.864 33.1198 135.417 33.1908 138.705C33.2498 141.424 33.2563 144.145 33.188 146.862C33.1051 150.187 30.4762 152.687 27.1428 152.712C25.8528 152.722 24.5619 152.714 23.2709 152.714Z" fill="#058288"/>
</g>
<defs>
<clipPath id="clip0_282_600">
<rect width="166" height="166" fill="white"/>
</clipPath>
</defs>
</svg>
