<svg width="256" height="256" viewBox="0 0 256 256" fill="none" xmlns="http://www.w3.org/2000/svg">
<g clip-path="url(#clip0_709_643)">
<rect width="256" height="256" rx="40" fill="white"/>
<path d="M99.0969 52.4734C117.304 41.8943 139.684 42.0792 157.72 52.9578C175.579 64.0579 186.433 83.8685 186.333 105.179C185.916 126.35 174.277 146.25 159.729 161.634C151.332 170.554 141.938 178.441 131.74 185.134C130.69 185.741 129.54 186.148 128.346 186.334C127.197 186.285 126.078 185.945 125.09 185.346C109.52 175.288 95.8611 162.451 84.7694 147.45C75.4882 134.928 70.2153 119.8 69.6667 104.12L69.7082 101.839C70.466 81.3724 81.54 62.6747 99.0969 52.4734ZM135.561 86.6234C128.159 83.4773 119.625 85.1866 113.944 90.9532C108.263 96.7199 106.555 105.406 109.618 112.957C112.681 120.507 119.91 125.432 127.93 125.432C133.184 125.47 138.235 123.366 141.957 119.588C145.679 115.81 147.762 110.672 147.744 105.32C147.772 97.1506 142.962 89.7696 135.561 86.6234Z" fill="url(#paint0_linear_709_643)"/>
<path opacity="0.4" d="M128 211.334C151.012 211.334 169.667 207.603 169.667 203C169.667 198.398 151.012 194.667 128 194.667C104.988 194.667 86.3333 198.398 86.3333 203C86.3333 207.603 104.988 211.334 128 211.334Z" fill="url(#paint1_linear_709_643)"/>
</g>
<defs>
<linearGradient id="paint0_linear_709_643" x1="69.6667" y1="44.667" x2="209.57" y2="73.4706" gradientUnits="userSpaceOnUse">
<stop stop-color="#10CAD1"/>
<stop offset="1" stop-color="#058288"/>
</linearGradient>
<linearGradient id="paint1_linear_709_643" x1="86.3333" y1="194.667" x2="126.984" y2="245.48" gradientUnits="userSpaceOnUse">
<stop stop-color="#10CAD1"/>
<stop offset="1" stop-color="#058288"/>
</linearGradient>
<clipPath id="clip0_709_643">
<rect width="256" height="256" fill="white"/>
</clipPath>
</defs>
</svg>
