<svg width="256" height="256" viewBox="0 0 256 256" fill="none" xmlns="http://www.w3.org/2000/svg">
<g clip-path="url(#clip0_709_664)">
<rect width="256" height="256" rx="40" fill="white"/>
<g clip-path="url(#clip1_709_664)">
<path d="M96.0647 98H80.4101V107.199H96.0647V98Z" fill="#1D204F"/>
<path d="M37.0955 138.391C41.5833 142.676 47.5521 145.063 53.757 145.055C56.7017 145.055 59.4897 144.043 59.4897 142.019C59.4897 139.995 57.3191 138.983 52.2037 138.063C43.6832 136.514 30.6596 134.521 30.6596 121.558C30.6596 112.799 37.9455 104.82 52.1278 104.82C60.5725 104.82 68.1671 107.224 74.0566 112.025L65.6877 123.106C61.1948 119.701 55.3811 117.996 51.2727 117.996C47.4021 117.996 46.547 119.387 46.547 120.708C46.547 122.732 48.6417 123.42 54.1366 124.351C62.6622 125.823 75.2961 128.302 75.2961 140.233C75.2961 151.627 66.8465 158.215 52.9779 158.215C41.973 158.215 34.4543 154.957 28.9494 149.998L37.0955 138.391Z" fill="#1D204F"/>
<path d="M80.4101 157.3V111.181H96.0647V157.3H80.4101Z" fill="#1D204F"/>
<path d="M104.436 148.835V157.3H112.906L104.436 148.835Z" fill="#1D204F"/>
<path d="M146.682 157.298H162.337V131.671L146.682 147.326V157.298Z" fill="#1D204F"/>
<path d="M209.44 157.299L207.417 150.636H187.572L185.549 157.299H168.599L187.663 105.609H207.346L226.411 157.299H209.44ZM197.505 119.402L191.615 137.617H203.394L197.505 119.402Z" fill="#1D204F"/>
<path d="M162.339 98.0202V119.868L146.685 135.528L124.913 157.3L113.969 146.355L113.974 146.35L104.436 136.813V114.94L104.442 114.93L124.918 135.406L162.319 98L162.339 98.0202Z" fill="#00B04E"/>
</g>
</g>
<defs>
<clipPath id="clip0_709_664">
<rect width="256" height="256" fill="white"/>
</clipPath>
<clipPath id="clip1_709_664">
<rect width="200" height="60.2151" fill="white" transform="translate(28 98)"/>
</clipPath>
</defs>
</svg>
