<svg width="53" height="17" viewBox="0 0 53 17" fill="none" xmlns="http://www.w3.org/2000/svg">
<path d="M20.0816 0.298953L13.1584 16.7399H8.63969L5.23517 3.62043C5.02558 2.81126 4.84646 2.51694 4.21799 2.17337C3.18852 1.61946 1.49514 1.09979 0 0.776269L0.104641 0.299055H7.37469C8.3019 0.299055 9.13552 0.914539 9.34512 1.97557L11.1453 11.4913L15.5917 0.299055H20.0816V0.298953ZM37.7814 11.3697C37.8014 7.03279 31.7515 6.79675 31.795 4.85654C31.8068 4.26429 32.3708 3.6376 33.606 3.47938C34.2194 3.39817 35.9074 3.33865 37.8206 4.21279L38.5705 0.727951C37.5411 0.356111 36.2179 0 34.5734 0C30.3496 0 27.3762 2.23587 27.3511 5.43502C27.3234 7.80083 29.4725 9.12093 31.0936 9.90882C32.7582 10.715 33.3147 11.2297 33.3088 11.9528C33.2979 13.0563 31.9807 13.5385 30.7521 13.5602C28.603 13.5935 27.3565 12.9822 26.361 12.5209L25.5873 16.1254C26.5843 16.5811 28.4306 16.9767 30.3412 17C34.8304 16.9998 37.7672 14.7878 37.7814 11.3697ZM48.9354 16.74H52.8889L49.4392 0.299055H45.7896C44.9695 0.299055 44.2781 0.775036 43.9702 1.50422L37.5613 16.74H42.0471L42.9375 14.2846H48.4208L48.9354 16.74ZM44.1668 10.9149L46.4171 4.74161L47.7118 10.9149H44.1668ZM26.1888 0.298953L22.6529 16.7399H18.3785L21.9152 0.298953H26.1888V0.298953Z" fill="url(#paint0_linear_508_458)"/>
<defs>
<linearGradient id="paint0_linear_508_458" x1="0" y1="0" x2="41.1923" y2="32.0385" gradientUnits="userSpaceOnUse">
<stop stop-color="#10CAD1"/>
<stop offset="1" stop-color="#058288"/>
</linearGradient>
</defs>
</svg>
