<svg width="36" height="36" viewBox="0 0 36 36" fill="none" xmlns="http://www.w3.org/2000/svg">
<g clip-path="url(#clip0_674_1076)">
<mask id="mask0_674_1076" style="mask-type:luminance" maskUnits="userSpaceOnUse" x="0" y="0" width="36" height="36">
<path d="M36 0H0V36H36V0Z" fill="white"/>
</mask>
<g mask="url(#mask0_674_1076)">
<path d="M0 17.46C0 7.42723 7.85923 0 18 0C28.1408 0 36 7.42723 36 17.46C36 27.4928 28.1408 34.92 18 34.92C16.1775 34.92 14.4315 34.6792 12.789 34.2292C12.4705 34.1406 12.1312 34.1644 11.8282 34.2968L8.25523 35.8762C8.03945 35.9714 7.80358 36.0122 7.56835 35.9949C7.33313 35.9775 7.10578 35.9027 6.90625 35.7769C6.70672 35.6512 6.54114 35.4784 6.42405 35.2736C6.30696 35.0689 6.24196 34.8385 6.23475 34.6028L6.13575 31.401C6.12891 31.2061 6.0825 31.0146 5.99934 30.8382C5.91618 30.6619 5.79799 30.5042 5.652 30.375C2.151 27.243 0 22.707 0 17.46ZM12.4785 14.1772L7.191 22.5652C6.68475 23.3708 7.67246 24.2775 8.43077 23.7038L14.112 19.3928C14.2988 19.2509 14.5269 19.1736 14.7615 19.1728C14.9962 19.172 15.2247 19.2476 15.4125 19.3882L19.6178 22.5428C19.9161 22.7665 20.2576 22.926 20.6207 23.0112C20.9838 23.0964 21.3606 23.1055 21.7274 23.0378C22.0941 22.9702 22.4429 22.8273 22.7516 22.6182C23.0604 22.4091 23.3226 22.1382 23.5215 21.8228L28.809 13.4348C29.3175 12.6292 28.3275 11.7225 27.5692 12.2962L21.888 16.6072C21.7012 16.7491 21.4731 16.8264 21.2385 16.8272C21.0038 16.828 20.7753 16.7524 20.5875 16.6118L16.3822 13.455C16.0839 13.2312 15.7424 13.0717 15.3793 12.9865C15.0162 12.9013 14.6394 12.8922 14.2726 12.9599C13.9059 13.0275 13.5571 13.1705 13.2484 13.3795C12.9396 13.5887 12.6774 13.8595 12.4785 14.175V14.1772Z" fill="#00B2FF"/>
</g>
</g>
<defs>
<clipPath id="clip0_674_1076">
<rect width="36" height="36" fill="white"/>
</clipPath>
</defs>
</svg>
