<svg width="36" height="36" viewBox="0 0 36 36" fill="none" xmlns="http://www.w3.org/2000/svg">
<g clip-path="url(#clip0_674_1034)">
<mask id="mask0_674_1034" style="mask-type:luminance" maskUnits="userSpaceOnUse" x="0" y="0" width="36" height="36">
<path d="M36 0H0V36H36V0Z" fill="white"/>
</mask>
<g mask="url(#mask0_674_1034)">
<path d="M8.22118 2.98769C8.08834 2.81683 7.92065 2.67618 7.72935 2.57509C7.53797 2.47401 7.3273 2.41479 7.11127 2.40139C6.89527 2.38798 6.67889 2.42068 6.4765 2.49733C6.2741 2.57398 6.09034 2.69281 5.9374 2.84594L3.6109 5.17469C2.52416 6.26369 2.12366 7.80491 2.5984 9.15722C4.56882 14.7543 7.77406 19.8359 11.9764 24.0252C16.1657 28.2275 21.2473 31.4327 26.8444 33.4032C28.1966 33.8779 29.7379 33.4775 30.8269 32.3907L33.1534 30.0642C33.3066 29.9112 33.4254 29.7275 33.502 29.5251C33.5786 29.3227 33.6113 29.1063 33.5979 28.8903C33.5845 28.6743 33.5254 28.4637 33.4243 28.2723C33.3232 28.0809 33.1825 27.9133 33.0116 27.7805L27.8209 23.7439C27.6384 23.6024 27.426 23.5041 27.2 23.4566C26.9739 23.409 26.74 23.4134 26.5159 23.4695L21.5884 24.7002C20.9307 24.8646 20.2416 24.8559 19.5882 24.6749C18.9349 24.4939 18.3396 24.1468 17.8602 23.6674L12.3342 18.1392C11.8544 17.66 11.5069 17.0648 11.3255 16.4114C11.1442 15.758 11.135 15.0689 11.2992 14.4109L12.5322 9.48345C12.5882 9.25931 12.5926 9.02539 12.5451 8.79938C12.4975 8.5733 12.3993 8.36097 12.2576 8.17845L8.22118 2.98769ZM4.23866 1.14944C4.6324 0.755575 5.10542 0.449981 5.62632 0.25295C6.14722 0.0559194 6.70407 -0.0280401 7.25991 0.00664652C7.81575 0.0413332 8.35783 0.193872 8.85024 0.454135C9.34258 0.714397 9.77393 1.07643 10.1156 1.51619L14.1522 6.70469C14.8924 7.65645 15.1534 8.89622 14.8609 10.0662L13.6302 14.9937C13.5665 15.2489 13.57 15.5163 13.6401 15.7697C13.7103 16.0232 13.8448 16.2543 14.0306 16.4405L19.5589 21.9687C19.7453 22.1549 19.9767 22.2897 20.2306 22.3598C20.4846 22.43 20.7523 22.4332 21.0079 22.3692L25.9332 21.1385C26.5105 20.9941 27.1132 20.9829 27.6955 21.1056C28.2779 21.2285 28.8247 21.482 29.2946 21.8472L34.4832 25.8837C36.3484 27.3349 36.5194 30.0912 34.8499 31.7585L32.5234 34.0849C30.8584 35.7499 28.3699 36.4812 26.0502 35.6645C20.1128 33.5754 14.722 30.1763 10.2776 25.7195C5.82106 21.2758 2.42202 15.8857 0.332656 9.94922C-0.481844 7.63168 0.249406 5.14094 1.9144 3.47594L4.2409 1.14944H4.23866Z" fill="#FFB53F"/>
</g>
</g>
<defs>
<clipPath id="clip0_674_1034">
<rect width="36" height="36" fill="white"/>
</clipPath>
</defs>
</svg>
