<svg width="36" height="36" viewBox="0 0 36 36" fill="none" xmlns="http://www.w3.org/2000/svg">
<g clip-path="url(#clip0_674_1070)">
<mask id="mask0_674_1070" style="mask-type:luminance" maskUnits="userSpaceOnUse" x="0" y="0" width="36" height="36">
<path d="M36 0H0V36H36V0Z" fill="white"/>
</mask>
<g mask="url(#mask0_674_1070)">
<path d="M30.6022 5.23361C28.9518 3.56788 26.9864 2.24729 24.8204 1.34877C22.6545 0.450259 20.3314 -0.00819962 17.9865 0.000110994C8.16077 0.000110994 0.153 8.00558 0.144 17.8336C0.144 20.9813 0.9675 24.0436 2.52225 26.7549L0 36.0001L9.459 33.5206C12.0758 34.9447 15.0073 35.6911 17.9865 35.6919H17.9955C27.8235 35.6919 35.829 27.6863 35.838 17.8493C35.8402 15.505 35.3786 13.1833 34.4796 11.0181C33.5807 8.85288 32.2621 6.88698 30.6 5.23361H30.6022ZM17.9865 32.6723C15.3292 32.6733 12.7208 31.9582 10.4355 30.6023L9.89546 30.2783L4.284 31.7499L5.7825 26.2756L5.4315 25.7109C3.94607 23.3491 3.16045 20.6147 3.16575 17.8246C3.16575 9.66612 9.819 3.01061 17.9955 3.01061C19.9434 3.00712 21.8727 3.38923 23.6723 4.13492C25.4718 4.88061 27.106 5.97512 28.4805 7.35535C29.8598 8.73019 30.9533 10.3646 31.6979 12.1642C32.4423 13.9637 32.8232 15.8929 32.8185 17.8403C32.8095 26.0281 26.1562 32.6723 17.9865 32.6723ZM26.1202 21.5709C25.677 21.3481 23.4878 20.2703 23.076 20.1173C22.6665 19.9711 22.3672 19.8946 22.0748 20.3401C21.7755 20.7833 20.9205 21.7936 20.664 22.0839C20.4075 22.3831 20.142 22.4169 19.6965 22.1963C19.2532 21.9713 17.8155 21.5033 16.1145 19.9801C14.787 18.7989 13.8982 17.3363 13.6328 16.8931C13.3762 16.4476 13.608 16.2091 13.8308 15.9863C14.0265 15.7883 14.274 15.4643 14.4968 15.2079C14.7218 14.9513 14.796 14.7623 14.9422 14.4653C15.0885 14.1639 15.0188 13.9073 14.9085 13.6846C14.796 13.4619 13.9072 11.2636 13.5315 10.3771C13.1715 9.50188 12.8048 9.62335 12.5302 9.61211C12.2738 9.59635 11.9745 9.59635 11.6752 9.59635C11.4493 9.60196 11.2269 9.65424 11.022 9.74985C10.8172 9.84554 10.6344 9.98248 10.485 10.1521C10.0755 10.5976 8.93023 11.6753 8.93023 13.8736C8.93023 16.0719 10.5278 18.1846 10.7528 18.4839C10.9732 18.7831 13.8892 23.2809 18.3645 25.2159C19.422 25.6771 20.2545 25.9493 20.9048 26.1563C21.9735 26.4983 22.9388 26.4466 23.7082 26.3363C24.5632 26.2059 26.343 25.2563 26.7188 24.2146C27.0878 23.1706 27.0878 22.2796 26.9752 22.0929C26.865 21.9039 26.5658 21.7936 26.1202 21.5709Z" fill="#25D366"/>
</g>
</g>
<defs>
<clipPath id="clip0_674_1070">
<rect width="36" height="36" fill="white"/>
</clipPath>
</defs>
</svg>
